<?xml version="1.0" encoding="utf-8"?>
<!-- Generator: Adobe Illustrator 25.2.3, SVG Export Plug-In . SVG Version: 6.00 Build 0)  -->
<svg version="1.1" xmlns="http://www.w3.org/2000/svg" xmlns:xlink="http://www.w3.org/1999/xlink" x="0px" y="0px"
	 viewBox="0 0 583.54 470.58" style="enable-background:new 0 0 583.54 470.58;" xml:space="preserve">
<style type="text/css">
	.st0{fill:#F2D100;}
	.st1{fill:#7A6900;}
	.st2{fill:none;}
	.st3{fill:#A68F00;}
	.st4{fill:#4E4300;}
	.st5{fill:#D9D9D9;}
	.st6{fill:#7B9C29;}
	.st7{fill:#1668B1;}
	.st8{fill:#E8C0A9;}
	.st9{fill:#C08F5C;}
	.st10{fill:#B66800;}
	.st11{fill:#FFFFFF;}
	.st12{fill:#617D20;}
	.st13{fill:#004B83;}
	.st14{fill:#CFAD99;}
	.st15{fill:#254E9A;}
</style>
<g id="kreis">
	<path class="st0" d="M368.09,184.42l4.87-9.41l-8.66-9.25l-3.62,1.48c-1.24-2.53-2.55-5.02-3.9-7.48c-1.75,1.73-4.16,2.8-6.82,2.8
		c-5.36,0-9.71-4.35-9.71-9.71c0-4.26,2.75-7.88,6.58-9.18c-26.32-38.1-66.47-65.91-113.2-76.17c-1.48-3.88,1.3-8.5,3.09-11.68
		c0.16-0.21,0.31-0.41,0.44-0.6c1.39-2.1,1.4-6.1,1.4-6.1s3.88-4.74,3.8-7.96c-0.07-3.05-1.33-3.49-1.9-3.53
		c-0.11-0.01-0.21-0.01-0.28-0.01c0.04-0.16,1.24-5.48,1.84-7.09c0.63-1.67,0.13-4.57-1.12-6.81c1.13,0.69,2.13,1.6,2.13,1.6
		c-0.79-3.48-2.75-5.55-3.67-6.35c-0.06-0.14-0.12-0.28-0.19-0.43l1.65-0.19c-1.36-1.94-2.87-2.93-3.99-3.43
		c-0.09-0.11-0.19-0.21-0.29-0.32l2.85,0.37c-1.62-1.17-4-2.07-5.3-2.51c-0.2-0.14-0.39-0.28-0.6-0.41c0.68-0.23,2.14-0.72,2-0.79
		c-1.99-0.93-4.29-1.07-5.71-1.06c-0.15-0.05-0.29-0.11-0.44-0.16c0.87-0.22,1.76-0.6-0.36-1.02c-2.98-0.59-5.64-0.48-6.22-0.44
		c-0.59-0.04-3.24-0.15-6.22,0.44c-2.12,0.42-1.22,0.8-0.36,1.02c-0.15,0.05-0.29,0.11-0.44,0.16c-1.42-0.01-3.72,0.12-5.71,1.06
		c-0.14,0.07,1.32,0.56,2,0.79c-0.21,0.13-0.4,0.27-0.6,0.41c-1.3,0.44-3.68,1.34-5.3,2.51l2.85-0.37c-0.1,0.11-0.19,0.21-0.29,0.32
		c-1.12,0.5-2.63,1.48-3.99,3.43l1.65,0.19c-0.07,0.14-0.13,0.29-0.19,0.43c-0.92,0.81-2.89,2.87-3.67,6.35c0,0,1.08-1,2.28-1.7
		c-0.71,1.39-2.03,4.47-1.22,6.75c1.08,3.05,1.9,7.26,1.9,7.26s-1.9-0.47-2.17,3.05s3.79,8.43,3.79,8.43s-0.13,3.31,1.4,6.1
		c1.28,2.33,3.38,5.64,3.78,8.87c-6.16-0.62-12.42-0.94-18.74-0.94C90.69,63.15,7.32,146.52,7.32,249.36s83.37,186.21,186.21,186.21
		s186.21-83.37,186.21-186.21C379.74,226.52,375.62,204.64,368.09,184.42z"/>
</g>
<g id="fig_x5F_hinten">
	<path class="st1" d="M297.25,115.65c-7.5-11.48-26-29.05-34.67-33.5c-8.67-4.45-20.15-7.84-25.3-10.78
		c-7.65-4.36-2.55-11.89-0.21-16.16c1.53-2.78,1.4-6.1,1.4-6.1s4.07-4.92,3.79-8.43s-2.17-3.05-2.17-3.05s0.81-4.22,1.9-7.26
		c0.81-2.28-0.51-5.36-1.22-6.75c1.2,0.69,2.28,1.7,2.28,1.7c-0.79-3.48-2.75-5.55-3.67-6.35c-0.06-0.14-0.12-0.28-0.19-0.43
		l1.65-0.19c-1.36-1.94-2.87-2.93-3.99-3.43c-0.09-0.11-0.19-0.21-0.29-0.32l2.85,0.37c-1.62-1.17-4-2.07-5.3-2.51
		c-0.2-0.14-0.39-0.28-0.6-0.41c0.68-0.23,2.14-0.72,2-0.79c-1.99-0.93-4.29-1.07-5.71-1.06c-0.15-0.05-0.29-0.11-0.44-0.16
		c0.87-0.22,1.76-0.6-0.36-1.02c-2.98-0.59-5.64-0.48-6.22-0.44c-0.59-0.04-3.24-0.15-6.22,0.44c-2.12,0.42-1.22,0.8-0.36,1.02
		c-0.15,0.05-0.29,0.11-0.44,0.16c-1.42-0.01-3.72,0.12-5.71,1.06c-0.14,0.07,1.32,0.56,2,0.79c-0.21,0.13-0.4,0.27-0.6,0.41
		c-1.3,0.44-3.68,1.34-5.3,2.51l2.85-0.37c-0.1,0.11-0.19,0.21-0.29,0.32c-1.12,0.5-2.63,1.48-3.99,3.43l1.65,0.19
		c-0.07,0.14-0.13,0.29-0.19,0.43c-0.92,0.81-2.89,2.87-3.67,6.35c0,0,1.08-1,2.28-1.7c-0.71,1.39-2.03,4.47-1.22,6.75
		c1.08,3.05,1.9,7.26,1.9,7.26s-1.9-0.47-2.17,3.05s3.79,8.43,3.79,8.43s-0.13,3.31,1.4,6.1c2.34,4.27,7.45,11.8-0.21,16.16
		c-5.15,2.93-16.63,6.32-25.3,10.78c-8.67,4.45-27.17,22.02-34.67,33.5c-7.5,11.48-13.19,21.89-12.42,29.75
		c0.77,7.86,17.1,25.77,22.25,31.16c5.15,5.39,11.01,8.67,11.01,8.67s2.34,6.79,5.86,10.31s7.03,5.39,9.14,4.45
		c1.9-0.84,4.74-2.26,5.29-3.38c0.06-0.32,0.1-0.45,0.1-0.36c0,0.12-0.04,0.24-0.1,0.36c-0.85,4.16-3.03,41.87-2.03,90.99
		c0.11,5.41,1.09,23.51,1.09,23.51l-1.11,0.5c0,0,0.76,40.18,1.72,48.8c0.96,8.62,3.6,29.33,3.76,34.02
		c0.16,4.69-0.83,7.25-4.88,9.32c-4.05,2.07-18.93,11.5-18.93,11.5l-59.43,18.33l-12.45,26.91l48.5-19.57l19.72,17.8l76.25-29.35
		c0,0,12.2-3.63,17.98-5.85c5.78-2.22,18.71-8.27,18.71-8.27s0.08,0.05-2.41-4.59c-2.49-4.64-14.32-4.83-18.37-6.91
		s-5.04-4.63-4.88-9.32c0.16-4.69,2.8-25.4,3.76-34.02c0.96-8.62,1.72-48.8,1.72-48.8l-1.11-0.5c0,0,0.98-18.1,1.09-23.51
		c1-49.12-1.18-86.83-2.03-90.99c-0.06-0.12-0.1-0.25-0.1-0.36c0-0.08,0.04,0.05,0.1,0.36c0.55,1.13,3.39,2.54,5.29,3.38
		c2.11,0.94,5.62-0.94,9.14-4.45s5.86-10.31,5.86-10.31s5.86-3.28,11.01-8.67c5.15-5.39,21.48-23.29,22.25-31.16
		C310.44,137.54,304.74,127.13,297.25,115.65z M190.02,177.72c-0.94-0.94-3.51-0.7-6.09-0.23c-2.58,0.47-5.15-1.64-7.26-3.98
		c-2.11-2.34-21.55-29.52-21.55-29.52s12.65-8.2,18.51-12.65s6.79-8.43,6.79-8.43l6.79,8.2c0,0,2.58,7.5,3.05,14.52
		c0.47,7.03,3.05,14.52,2.58,19.68c-0.47,5.15,0.7,12.88,0.7,12.88S190.95,178.66,190.02,177.72z M187.87,423.87l21.44-8.65
		c2.62-0.13,1.88-7.85,1.38-13.69c-0.49-5.84,2.21-90.19,2.21-90.19l-0.97-0.66c0,0,6-34.73,7.75-55.71
		c0.55-6.62,2.61-26.77,3.1-31.55c0.49,4.78,2.55,24.93,3.1,31.55c1.75,20.99,7.75,55.71,7.75,55.71l-0.97,0.66
		c0,0,2.7,84.35,2.21,90.19c-0.49,5.84-1.23,13.56,1.38,13.69L187.87,423.87z M268.9,173.51c-2.11,2.34-4.69,4.45-7.26,3.98
		c-2.58-0.47-5.15-0.7-6.09,0.23c-0.94,0.94-3.51,0.47-3.51,0.47s1.17-7.73,0.7-12.88c-0.47-5.15,2.11-12.65,2.58-19.68
		s3.05-14.52,3.05-14.52l6.79-8.2c0,0,0.94,3.98,6.79,8.43s18.51,12.65,18.51,12.65S271.01,171.17,268.9,173.51z"/>
	<path class="st2" d="M759.82,401.53c0.49,5.84,1.23,13.56-1.38,13.69L737,423.87l48.39-8.65c-2.62-0.13-1.88-7.85-1.38-13.69
		c0.45-5.37-1.79-77.14-2.16-88.63c-6.68,0.57-8.19-0.33-11.09-0.81c-2.52-0.42-5.05,1.11-8.83,2.58
		C761.43,330.33,759.39,396.39,759.82,401.53z"/>
	<path class="st0" d="M453.84,283.19c0,0.12,0.04,0.24,0.1,0.36C453.88,283.23,453.84,283.1,453.84,283.19z"/>
	<path class="st0" d="M387.27,283.55c0.06-0.12,0.1-0.25,0.1-0.36C387.37,283.1,387.34,283.23,387.27,283.55z"/>
	<g>
		<path class="st3" d="M221.62,312.09c2.9,0.48,4.41,1.38,11.09,0.81c-0.03-1-0.05-1.55-0.05-1.55l0.97-0.66c0,0-6-34.73-7.75-55.71
			c-0.55-6.62-2.61-26.77-3.1-31.55c-0.49,4.78-2.55,24.93-3.1,31.55c-1.75,20.99-7.75,55.71-7.75,55.71l0.97,0.66
			c0,0-0.04,1.21-0.11,3.33C216.58,313.2,219.1,311.67,221.62,312.09z"/>
		<path class="st3" d="M188.51,311.09c0,0-0.98-18.1-1.09-23.51c-1-49.12,1.18-86.83,2.03-90.99c-0.55,1.13-3.39,2.54-5.29,3.38
			c-2.11,0.94-5.62-0.94-9.14-4.45s-5.86-10.31-5.86-10.31s-5.86-3.28-11.01-8.67c-5.15-5.39-21.48-23.29-22.25-31.16
			c-0.37-3.72,0.73-8.03,2.77-12.74c-6.16,12.43-21.13,63.96-24.38,84.56c-3.25,20.6-10.84,58.54-8.13,62.34
			c2.71,3.79,5.42-0.54,10.84,3.79c5.42,4.34,6.5,5.42,9.22,8.13c2.71,2.71,2.71,6.5,7.59,6.5s2.17,4.88,7.05,6.5
			c4.88,1.63,5.42,4.34,11.38,4.34c3.51,0,20.56,3.01,35.21,5.15c-0.03-1.52-0.05-2.4-0.05-2.4L188.51,311.09z"/>
		<path class="st3" d="M261.64,177.49c2.58,0.47,5.15-1.64,7.26-3.98c2.11-2.34,21.55-29.52,21.55-29.52s-12.65-8.2-18.51-12.65
			s-6.79-8.43-6.79-8.43l-6.79,8.2c0,0-2.58,7.5-3.05,14.52s-3.05,14.52-2.58,19.68c0.47,5.15-0.7,12.88-0.7,12.88
			s2.58,0.47,3.51-0.47C256.49,176.79,259.06,177.02,261.64,177.49z"/>
		<path class="st3" d="M317.03,225.35c-1.08-22.23-2.26-61.25-7.37-79.96c-0.77,7.86-17.1,25.77-22.25,31.16
			c-5.15,5.39-11.01,8.67-11.01,8.67s-2.34,6.79-5.86,10.31s-7.03,5.39-9.14,4.45c-1.9-0.84-4.74-2.26-5.29-3.38
			c0.85,4.16,3.03,41.87,2.03,90.99c-0.11,5.41-1.09,23.51-1.09,23.51l1.11,0.5c0,0-0.01,0.48-0.03,1.36
			c3.68,0.05,6.63-0.12,7.93-0.86c3.79-2.17,0-5.96,5.42-5.96c5.42,0,10.3,0.54,12.47-3.25s4.34-3.79,8.13-6.5
			c3.79-2.71,5.96-1.63,8.13-5.42s10.3-2.71,14.64-7.59C319.2,278.48,318.11,247.58,317.03,225.35z"/>
		<path class="st3" d="M192.83,165.31c0.47-5.15-2.11-12.65-2.58-19.68c-0.47-7.03-3.05-14.52-3.05-14.52l-6.79-8.2
			c0,0-0.94,3.98-6.79,8.43s-18.51,12.65-18.51,12.65s19.44,27.17,21.55,29.52c2.11,2.34,4.69,4.45,7.26,3.98
			c2.58-0.47,5.15-0.7,6.09,0.23c0.94,0.94,3.51,0.47,3.51,0.47S192.36,170.46,192.83,165.31z"/>
	</g>
</g>
<g id="tiefe">
	<path class="st4" d="M256.02,196.23c0,0.12,0.04,0.24,0.1,0.36C256.05,196.28,256.02,196.15,256.02,196.23z"/>
	<path class="st4" d="M238.57,49.12c0,0-0.01,4-1.4,6.1c-1.39,2.1-5.27,5.86-10.29,6.66c-5.02,0.8-6.39,0.34-6.39,0.34
		s6.51-0.57,8.9-2.4s5.59-4.7,6.28-7.89s1.56-6.39,1.44-9.01c-0.11-2.62,0.5-6.15,1.41-9.11c0.91-2.97,1.94-3.99,1.48-6.39
		c-0.46-2.4-4.22-4.57-4.22-4.57s3.98-1.18,5.1,0.78c1.29,2.26,1.81,5.21,1.17,6.91c-0.61,1.63-1.85,7.11-1.85,7.11
		s2.08-0.43,2.18,3.52C242.45,44.38,238.57,49.12,238.57,49.12z"/>
	<path class="st5" d="M230.85,49.29c0,2.4-3.69,6.84-8.25,6.84c-4.56,0-8.25-4.44-8.25-6.84c0,0,3.93,1.3,8.48,1.3
		C227.39,50.59,230.85,49.29,230.85,49.29z"/>
	<path class="st4" d="M303.78,126.4c-1.04-3.72,8.46,16.07,4.91,22.84c-3.55,6.77-16.58,22.84-19.96,26.22s-12.01,9.47-12.01,9.47
		s-2.2,7.78-7.44,11.84s-7.61,4.23-13.03,0c0,0,4.74,2.37,7.61,0.68s6.6-4.4,7.61-7.27s2.37-6.94,5.92-9.3
		c3.55-2.37,17.76-16.41,20.64-20.81C300.91,155.67,309.87,148.22,303.78,126.4z"/>
	<path class="st4" d="M256.24,196.78c0,0,2.16,39.85,2.16,61.35s-1.34,52.97-1.34,52.97l1.11,0.5c0,0-0.87,41.49-1.72,48.8
		c-0.85,7.31-3.76,34.02-3.76,34.02s1.42-30.84,1.42-45.02s1.44-53.29,1.44-62.89s-0.98-71.13-0.98-77.07
		S256.24,196.78,256.24,196.78z"/>
	<path class="st4" d="M222.78,223.41c0,0-2.52,29.63-4.36,43.57c-1.84,13.94-6.5,43.69-6.5,43.69l0.97,0.66
		c0,0-2.21,80.65-2.21,86.31c0,5.66,0.47,11.11,0.47,11.11s-2.22-4.93-2.22-14.36c0-9.43,0.98-70.77,0.98-74.75
		s-0.98-9.17-0.98-9.17s6.44-38.61,8-48.95C218.5,251.2,222.78,223.41,222.78,223.41z"/>
	<path class="st4" d="M178.09,174.97l-22.98-30.97c0,0,12.48-8.16,16-10.81c3.52-2.64,6.8-4.38,9.3-10.28c0,0-6.67,3.82-10.65,7.8
		c-3.98,3.98-17.59,10.18-16.85,13.14S173.83,174.97,178.09,174.97z"/>
</g>
<g id="fig_x5F_vorne">
	<g>
		<path class="st6" d="M158.44,164.68c-0.4,1.68-0.82,3.31-0.59,5.13c0.25,2.04-0.16,4.16-0.07,6.23c0.15,3.26,0.48,6.51,0.74,9.76
			c0.36,4.36,0.68,8.71-1,12.92c-0.79,1.98-0.98,4.03-0.01,6.03c0.17,0.34,0.66,0.54,1.03,0.76c0.49,0.3,1.01,0.56,1.52,0.83
			c-0.32,0.5-0.62,1.03-0.97,1.51c-0.7,0.96-1.42,1.9-2.14,2.84c-0.84,1.11-0.61,2.23,0.24,3.12c1.87,1.96,1.56,4.07,0.89,6.41
			c-0.78,2.69-2.08,5.33-1.68,8.24c0.34,2.52,0.94,5.01,1.39,7.51c0.11,0.6,0.07,1.22,0.15,1.82c0.18,1.24,0.31,2.49,0.62,3.7
			c0.63,2.38,0.4,5.89-2.91,7.27c-3.98,1.66-8.05,3.1-12.09,4.62c-5.41,2.03-11.03,2.33-16.72,2.06c-1.44-0.07-2.89-0.03-4.31-0.17
			c-4.28-0.43-8.56-0.96-12.84-1.4c-2.86-0.29-5.74-0.52-8.61-0.73c-1.71-0.12-2.21-0.79-2.19-2.53c0.04-3.7-0.03-7.41-0.12-11.12
			c-0.02-0.67-0.28-1.41-0.64-1.99c-1.75-2.75-1.53-5.73-1.12-8.74c0.41-3,1.06-5.99,1.17-8.99c0.06-1.67-0.61-3.45-1.26-5.05
			c-0.53-1.31-0.79-2.42-0.58-3.9c0.38-2.61,0.2-5.3,0.3-7.95c0.21-5.54,0.39-11.07,0.7-16.61c0.17-3.08,0.56-6.15,0.87-9.22
			c0.26-2.59,0.57-5.17,0.79-7.76c0.03-0.38-0.33-0.79-0.51-1.19c-0.38,0.31-1.05,0.59-1.09,0.94c-0.39,3.32-0.67,6.66-1,9.99
			c-0.24,2.42-0.4,4.85-0.82,7.24c-0.92,5.21-1.02,10.45-0.86,15.72c0.09,2.89,0.6,5.74-0.27,8.7c-0.39,1.31,0.62,3.1,1.16,4.61
			c0.73,2.03,1.67,3.97,0.97,6.24c-0.54,1.73-1.13,3.47-1.33,5.25c-0.47,4.23-1.24,8.41,0.44,12.69c0.85,2.17,0.63,4.81,0.69,7.24
			c0.08,3.27-1.02,6.5,0.36,9.82c1.03,2.48-0.51,4.82-3.17,6.53c-2.55,1.64-5.35,2.44-8.24,3.06c-1.66,0.36-3.78-1.33-4.12-3.16
			c-0.2-1.08-0.72-2.14-0.73-3.21c-0.02-1.91-0.09-3.92,0.45-5.71c0.79-2.64,0.57-4.93-0.92-7.19c-0.26-0.39-0.48-0.88-0.5-1.34
			c-0.12-2.3-0.16-4.61-0.26-6.91c-0.08-1.87,0.33-3.57,1.3-5.2c1.16-1.94,1.32-4.02,0.28-6.09c-1.75-3.49-0.96-6.98,0.07-10.42
			c0.51-1.72,0.26-3.33-1-4.58c-0.98-0.98-1.32-2.14-0.7-3.5c0.67-1.48,1.32-2.97,1.91-4.49c0.18-0.47,0.37-1.26,0.13-1.53
			c-1.71-1.96-1.32-4.82-3.23-6.83c-0.9-0.95-0.68-3.17-0.59-4.79c0.14-2.41,0.78-4.78,0.93-7.19c0.36-5.5,0.86-11.03,0.73-16.53
			c-0.16-6.68,0.88-12.91,4.19-18.78c1.58-2.8,3.22-5.58,5.62-7.67c1.77-1.54,3.96-2.63,6.04-3.78c2.74-1.52,5.54-2.92,8.34-4.32
			c0.85-0.43,1.79-0.69,2.71-0.97c0.16-0.05,0.54,0.14,0.58,0.29c0.68,2.47,2.75,3.76,4.63,4.98c6,3.91,12.61,3.83,19.32,2.41
			c4.16-0.88,8.32-1.75,11.73-4.58c1.82-1.51,3.77-2.88,4.97-5.01c0.72-1.28,1.43-2.12,3.21-1.05c2.73,1.65,5.73,2.86,8.56,4.36
			c0.87,0.46,1.62,1.19,2.34,1.89c1.14,1.1,2.27,2.24,3.3,3.44c1.35,1.58,2.84,3.11,3.86,4.89c1.86,3.23,3.6,6.56,5.06,9.99
			c1.71,4.02,2.83,8.22,2.64,12.71c-0.07,1.67,0.43,3.37,0.67,5.06c0.06,0.43,0.15,0.88,0.12,1.31c-0.27,3.69,0.04,7.34,0.92,10.91
			c0.86,3.49-0.87,6.26-2.24,9.15c-0.17,0.36-0.44,0.67-0.59,1.04c-0.41,1.03-0.65,1.9,0.23,3.01c0.81,1.02,1.41,2.44,1.52,3.74
			c0.31,3.55,0.68,7.15-2.08,10.18c-2.07,2.26-2.09,5.06-1.27,7.88c1.23,4.24,1.21,8.51,0.53,12.83c-0.22,1.37-0.06,2.8-0.14,4.21
			c-0.07,1.28-0.28,2.55-0.34,3.82c-0.11,2.15-0.28,4.32-0.21,6.47c0.08,2.34-0.7,4.42-1.51,6.53c-0.27,0.7-0.34,1.51-0.74,2.1
			c-0.67,0.98-1.35,2.22-2.34,2.66c-2.06,0.93-4.31,1.46-6.51,2.07c-0.93,0.26-1.59-0.15-1.76-1.2c-0.2-1.3-0.44-2.59-0.68-3.89
			c-0.46-2.41,0.95-4.43,1.34-6.65c0.26-1.49,0.48-3.07,0.24-4.53c-0.53-3.29-1.3-6.54-2.07-9.78c-1-4.19-1.32-8.31,0.38-12.43
			c1.03-2.5,1.06-4.99-0.43-7.46c-0.32-0.52,0.03-1.69,0.43-2.35c0.46-0.77,1.33-1.29,1.97-1.96c1.42-1.51,1.53-3.14,0.31-4.5
			c-0.21-0.24-0.52-0.44-0.83-0.53c-1.77-0.53-2.63-1.82-2.26-3.6c0.6-2.84,1.53-5.64,1.82-8.51c0.3-3.03,0.46-6.21-0.12-9.17
			c-0.82-4.21-0.54-8.32-0.27-12.51c0.11-1.7-0.19-3.53-0.75-5.14c-0.31-0.9,0.11-0.71,0.49-0.92c0.52-0.29,1-0.65,1.5-0.97
			c-0.51,0.04-1.02,0.11-1.53,0.1c-1.56-0.03-3.12-0.12-4.67-0.14c-0.28,0-0.56,0.25-0.85,0.39c0.15,0.28,0.25,0.78,0.44,0.82
			C156.08,164.45,157.26,164.55,158.44,164.68L158.44,164.68z M101.72,232.18l-0.02-0.01c-2.16,2.36-3.03,4.88-1.15,7.87
			c0.26,0.41-0.05,1.2-0.14,1.8c-0.04,0.27-0.16,0.52-0.24,0.78c0.31-0.1,0.72-0.11,0.92-0.31c1.1-1.13,0.81-2.43,0.34-3.72
			c-0.9-2.46-0.22-4.32,2.07-5.62c0.7-0.4,1.66-0.82,1.01-1.74c-0.3-0.43-1.32-0.45-2.02-0.46c-1.37-0.02-2.74,0.1-4.11,0.16
			c-0.15,0.01-0.3,0.02-0.45,0.04c0.08,0.15,0.14,0.33,0.25,0.45C99.18,232.54,100.44,232.4,101.72,232.18z M101.28,200.47
			l0.03,0.04L101.28,200.47c0.26-1.1,0.17-2.64,0.86-3.2c1.95-1.57,1.98-2.97,0.57-4.82c-0.45-0.59-0.58-1.42,0.5-1.8
			c1.95-0.68,3.89-1.4,5.82-2.13c0.78-0.3,1.61-0.56,2.25-1.06c0.78-0.6,1.35-1.28,0.05-2.21c-1.1-0.79-1.99-0.35-2.98-0.09
			c-2.71,0.73-5.37,1.8-8.27,1.15c-0.18-0.04-0.39,0.08-0.59,0.13c0.16,0.15,0.32,0.42,0.49,0.44c1.68,0.16,3.38,0.48,5.03,0.34
			c1.5-0.13,2.95-0.82,4.44-1.16c0.33-0.07,0.75,0.28,1.13,0.44c-0.28,0.18-0.54,0.42-0.85,0.53c-2.36,0.85-4.73,1.68-7.1,2.5
			c-1.5,0.52-2.05,1.6-1.5,3.09c0.21,0.58,0.42,1.21,0.8,1.67c0.96,1.15,0.27,1.85-0.56,2.52C99.9,197.99,99.85,199.1,101.28,200.47
			z M155.6,185.41c-0.02-0.08-0.08-0.27-0.14-0.46c-0.07,0.1-0.16,0.19-0.21,0.31c-0.89,2.2-2.78,2.59-4.81,2.52
			c-1.5-0.05-2.76,0.38-3.91,1.29c-1.38,1.1-1.31,2.21,0.34,2.87c1.22,0.48,2.52,0.78,3.82,1c0.94,0.16,1.74,0.28,1.9,1.42
			c0.02,0.16,0.27,0.29,0.41,0.43c0.11-0.22,0.31-0.44,0.31-0.66c-0.01-1.35-0.7-2.12-2.05-2.3c-0.87-0.12-1.76-0.19-2.6-0.43
			c-0.51-0.15-0.94-0.58-1.4-0.88c0.4-0.33,0.75-0.81,1.2-0.95c1.12-0.36,2.28-0.6,3.44-0.82
			C153.56,188.42,155.54,186.73,155.6,185.41z M94.65,167.53c2-0.15,3.44-0.21,4.87-0.4c0.27-0.04,0.48-0.55,0.72-0.84
			c-0.27-0.11-0.53-0.29-0.81-0.33c-0.3-0.04-0.61,0.03-0.92,0.06c-1.87,0.18-3.83,1.09-5.44-0.72c-0.05-0.06-0.3-0.04-0.31-0.02
			c-0.04,0.16-0.11,0.42-0.04,0.49C93.44,166.46,94.17,167.1,94.65,167.53z"/>
		<path class="st7" d="M106.7,413.14c-0.23-2.82-0.49-5.63-0.69-8.45c-0.2-2.95-0.42-5.9-0.49-8.85c-0.11-4.94-0.27-9.85-1.15-14.74
			c-0.64-3.53-0.77-7.16-1.19-10.73c-0.13-1.13-0.35-2.29-0.78-3.34c-1.3-3.15-1.07-6.29,0.23-9.28c1.22-2.8,0.94-5.62,0.64-8.44
			c-0.21-1.98-0.85-3.91-1.29-5.86c-0.57-2.53,0.51-4.44,2.95-5.25c0.46-0.15,1.02-0.22,1.32-0.54c0.4-0.41,0.59-1.03,0.88-1.55
			c-0.44-0.23-0.86-0.59-1.33-0.68c-2.96-0.57-4.43-2.51-4.53-6.42c-0.07-2.66,0.15-5.32,0.11-7.98c-0.02-1.48-0.44-2.96-0.46-4.45
			c-0.03-2.35,0.14-4.7,0.22-7.05c0.1-2.7,0-5.42,0.35-8.08c0.62-4.65-0.11-9.19-0.51-13.78c-0.32-3.63-0.09-7.3-0.1-10.95
			c0-0.35,0.02-0.72-0.07-1.05c-0.43-1.52-0.28-2.77,0.89-4.06c1.04-1.15,0.31-2.45-1.27-2.78c-0.35-0.07-0.91-0.36-0.92-0.57
			c-0.1-1.82-0.1-3.64-0.1-5.46c0-0.11,0.42-0.35,0.46-0.31c1.74,1.5,3.97,1.39,6.02,1.83c2.74,0.59,5.5,1.18,8.29,1.5
			c2.33,0.27,4.71,0.16,7.06,0.22c0.59,0.02,1.26-0.09,1.75,0.16c0.2,0.1,0.01,0.96,0.04,1.47c0.12,2.42,0.26,4.84,0.38,7.26
			c0.01,0.22-0.04,0.44-0.06,0.67c-0.18-0.11-0.37-0.21-0.54-0.34c-0.33-0.24-0.65-0.49-0.97-0.74c0.01,0.51-0.16,1.11,0.06,1.51
			c1.07,1.98,5.05,3.23,7.05,2.29c0.13-0.06,0.22-0.21,0.33-0.32c-0.17-0.04-0.34-0.1-0.51-0.13c-1.11-0.23-2.25-0.36-3.31-0.74
			c-0.36-0.13-0.65-0.86-0.71-1.35c-0.16-1.31-0.23-2.64-0.25-3.96c-0.02-1.67,0-3.35,0.1-5.02c0.01-0.24,0.54-0.63,0.85-0.65
			c5.21-0.3,10.45-0.33,15.63-0.89c2.64-0.28,5.22-1.38,7.76-2.3c2.37-0.85,4.66-1.95,6.97-2.96c0.62-0.27,0.9-0.21,0.75,0.54
			c-0.36,1.77-0.86,3.52-1.04,5.3c-0.3,2.89-0.47,5.8-0.55,8.71c-0.15,5.23,0.09,10.48-0.34,15.68c-0.59,7.17-1.68,14.3-2.5,21.45
			c-0.15,1.31,0.02,2.65-0.03,3.97c-0.07,1.68-0.18,3.35-0.35,5.02c-0.33,3.11-0.59,6.24-1.15,9.31c-0.28,1.52-1.05,3-1.83,4.37
			c-0.87,1.54-0.41,2.9,0.38,4.09c1.54,2.3,1.43,5.84-0.65,7.83c-1.25,1.2-1.91,2.18-0.75,3.86c0.36,0.51,0.2,1.74-0.18,2.35
			c-1.87,3.02-3.21,6.21-3.2,9.78c0,1.41,0.54,2.84,0.93,4.23c0.92,3.23,0.17,6.43-0.13,9.62c-0.24,2.53-0.97,5.02-1.24,7.55
			c-0.49,4.53-1.01,9.01-0.32,13.65c0.88,5.85,2.11,11.65,1.96,17.68c-0.1,4.26-1.13,8.32-1.63,12.48c-0.26,2.18-2.06,3.47-3.9,4.42
			c-2.69,1.4-5.57,1.56-8.52,0.97c-1.11-0.22-1.59-0.82-1.48-1.95c0.15-1.65,0.37-3.3,0.38-4.95c0.01-3.12-0.11-6.24-0.19-9.36
			c-0.06-2.08-0.02-4.16-0.26-6.22c-0.22-1.91-0.94-3.78-1.06-5.69c-0.22-3.41-0.14-6.84-0.21-10.26
			c-0.13-6.57-0.31-13.15-0.38-19.72c-0.04-3.8,0.08-7.61,0.16-11.42c0.05-2.46,0.17-4.92,0.27-7.37c0.01-0.22-0.03-0.53,0.09-0.65
			c1.69-1.63,0.63-3.29,0.27-5.05c-0.25-1.24-0.11-2.76,0.4-3.91c1.41-3.16,3.25-6.2,3.44-9.71c0.13-2.33-0.25-4.73-0.66-7.05
			c-1.14-6.49-2.62-12.93-3.56-19.45c-0.48-3.28-0.02-6.69-0.1-10.04c-0.07-3.11-0.2-6.23-0.48-9.33c-0.2-2.24-0.7-4.46-1.07-6.69
			c-0.06-0.35-0.05-0.74-0.21-1.04c-0.39-0.75-0.85-1.46-1.28-2.18c-0.1,0.68-0.23,1.36-0.29,2.04c-0.27,3.11-0.49,6.23-0.78,9.35
			c-0.16,1.62-0.56,3.22-0.64,4.84c-0.17,3.35-0.12,6.71-0.3,10.05c-0.24,4.4-0.56,8.8-0.94,13.19c-0.2,2.23-0.33,4.53-1.01,6.63
			c-0.57,1.78-0.71,3.47,0.07,4.99c1.29,2.52,1.4,5.14,1.4,7.85c0,2.52-1.15,4.4-2.99,5.97c-0.47,0.4-1,0.76-1.38,1.24
			c-0.79,1.01-0.41,1.96,0.82,2.25c1.49,0.35,1.85,1.03,1.31,2.47c-0.7,1.87-0.55,2.08,1.25,3.18c0.42,0.26,0.7,1.08,0.69,1.63
			c-0.04,2.47-0.38,4.94-0.28,7.41c0.13,3.38,0.69,6.74,0.82,10.12c0.09,2.45-0.31,4.92-0.32,7.38c-0.01,2.57,0.19,5.14,0.26,7.7
			c0.15,5.13,0.21,10.26,0.45,15.39c0.22,4.89,0.61,9.76,0.94,14.64c0.19,2.82,0.54,5.63,0.56,8.45c0.01,1.83-0.33,3.69-0.74,5.49
			c-0.13,0.57-0.91,1.26-1.52,1.4c-4,0.95-10.2,0.11-13.64-3.96c-0.36-0.42-0.63-0.99-0.75-1.53c-0.51-2.37-0.96-4.75-1.4-7.13
			c-0.27-1.44-0.57-2.87-0.7-4.33c-0.13-1.45-0.07-2.92-0.09-4.39C106.49,413.16,106.59,413.15,106.7,413.14z M114.39,346.39
			c-2.26,0.78-4.33,0.6-6.15-1.11c-0.22-0.21-0.59-0.25-0.89-0.37c0.06,0.36,0.02,0.8,0.21,1.07c1.52,2.13,4.27,3.34,6.88,0.47
			c0.02-0.02,0.05-0.04,0.07-0.07c0-0.01-0.03-0.04-0.05-0.06C114.43,346.34,114.41,346.37,114.39,346.39z M110.13,398.79
			c-0.09-1.21-0.2-2.78-0.33-4.36c-0.32-3.7-0.61-7.4-1.04-11.09c-0.12-1.02-0.67-2-1.06-2.99c-0.08-0.21-0.33-0.35-0.5-0.52
			c0.02,0.22,0.02,0.43,0.05,0.65c1.04,6.17,1.04,12.41,1.18,18.62c0.09,4.27,0.76,4,3.68,4.03c0.09,0,0.18-0.01,0.26,0.01
			c0.2,0.05,0.41,0.11,0.61,0.17c-0.09,0.23-0.11,0.57-0.28,0.68c-0.87,0.59-1.84,1.05-2.66,1.69c-0.54,0.42-1.19,1.04-1.27,1.64
			c-0.27,2.04-0.11,4.09,1.22,5.81c0.89,1.16,0.76,2.26,0.36,3.6c-0.41,1.39-0.39,2.9-0.51,4.37c-0.02,0.23,0.24,0.47,0.38,0.71
			c0.09-0.27,0.19-0.53,0.26-0.8c0.37-1.43,0.67-2.89,1.13-4.29c0.45-1.36,0.63-2.58-0.12-3.94c-0.61-1.09-0.99-2.34-1.29-3.56
			c-0.34-1.36-0.04-2.5,1.51-3.07c0.72-0.27,1.48-0.73,1.95-1.32c0.47-0.6,0.7-1.45,0.81-2.23c0.02-0.14-0.99-0.45-1.52-0.67
			c-0.24-0.1-0.49-0.2-0.75-0.24C109.96,401.36,109.96,401.36,110.13,398.79z M149.27,313.28c-0.12-0.83,0.01-1.7-0.36-2.17
			c-1.17-1.45-1.11-2.9-0.47-4.5c0.18-0.44,0.11-0.97,0.26-1.43c0.79-2.4,0.39-4.3-2.16-5.31c-0.69-0.28-0.58-0.48-0.05-0.83
			c0.66-0.44,1.46-0.84,1.86-1.47c1.03-1.65,2.23-3.32,2.68-5.15c0.58-2.36,0.49-4.88,0.67-7.34c0.03-0.45-0.05-0.92-0.09-1.37
			c-0.14,0.44-0.32,0.87-0.42,1.31c-0.59,2.76-1.03,5.57-1.8,8.28c-0.63,2.22-2.5,3.57-4.28,4.9c-0.61,0.45-1.15,0.99-1.72,1.49
			c0.69,0.46,1.36,0.95,2.07,1.39c0.52,0.32,1.11,0.54,1.62,0.88c0.21,0.14,0.43,0.5,0.4,0.72c-0.28,1.77-0.48,3.58-0.99,5.29
			c-0.34,1.13-0.25,2.06,0.48,2.81c1.54,1.59,1.45,3.38,0.96,5.31c-0.28,1.11-0.46,2.24-0.67,3.36c-0.02,0.14,0.1,0.3,0.15,0.45
			c0.09-0.14,0.23-0.26,0.27-0.41C148.23,317.39,148.76,315.3,149.27,313.28z M144.56,416.22c-0.07-0.02-0.14-0.03-0.21-0.05
			c-0.01-1.9,0.04-3.81-0.07-5.71c-0.1-1.67-0.37-3.34-0.59-5c-0.02-0.18-0.19-0.35-0.29-0.52c-0.09,0.18-0.26,0.35-0.26,0.53
			c-0.02,1.05-0.07,2.11,0,3.17c0.17,2.55,0.41,5.1,0.62,7.65c0.05,0.62,0.12,1.23,0.18,1.85
			C144.15,417.49,144.35,416.85,144.56,416.22z M137.06,350.61c1.59-0.68,3.19-1.36,4.78-2.05c0.29-0.13,0.56-0.32,0.83-0.49
			c-0.33-0.01-0.67-0.09-0.98-0.02c-2.54,0.55-5.11,1.69-7.53-0.36c-0.07-0.06-0.32-0.01-0.33,0.01c-0.02,0.16-0.07,0.36,0.01,0.48
			C134.55,349.36,135.42,350.33,137.06,350.61z"/>
		<path class="st8" d="M142.17,88.27c0.28,4.22-1.05,7.79-2.04,11.44c-0.61,2.24-0.63,4.64-1.24,6.88c-0.53,1.97-1.47,3.83-2.31,5.7
			c-0.43,0.96-1.11,1.8-1.59,2.74c-1.36,2.62-3.07,5.04-5.5,6.65c-6.09,4.05-11.7,3.18-14.93-4.01c-2.7-6.01-4.93-12.27-6.81-18.58
			c-0.96-3.22-0.72-6.8-0.94-10.22c-0.04-0.55,0.04-1.24,1.14-1.07c0.7,0.11,1.63-0.42,2.26-0.91c1.22-0.95,2.3-2.07,3.43-3.13
			c1.53-1.44,3.17-2.66,5.42-2.19c0.65,0.14,1.52,0.58,1.75,1.12c0.54,1.25,1.51,1.3,2.39,0.99c1.04-0.36,2.06-1,2.89-1.74
			c1.04-0.93,1.95-1.18,2.8-0.07c1.38,1.78,2.94,1.81,4.78,0.99c0.28-0.12,0.77-0.21,0.94-0.06c2.14,1.83,4.52,1.79,7.03,1.03
			c0.15-0.05,0.63,0.34,0.63,0.52C142.28,85.78,142.21,87.19,142.17,88.27z"/>
		<path class="st9" d="M105.59,81.18c0.51-1.53,0.91-3.12,1.56-4.59c1.37-3.12,2.65-6.32,4.38-9.24c1.5-2.53,3.52-4.74,5.4-7.02
			c0.45-0.55,1.21-0.89,1.89-1.2c1.99-0.91,2.28-0.76,2.9,1.32c0.65,2.17,1.2,2.45,3.33,1.78c0.91-0.29,1.88-0.42,2.78-0.72
			c1.05-0.34,1.02,0.13,1,0.96c-0.05,1.44-0.1,2.92,0.19,4.3c0.12,0.53,1.28,1.29,1.82,1.18c1.21-0.25,2.43-0.81,3.45-1.53
			c1.93-1.38,3.97-1.74,6.2-1.17c0.29,0.08,0.66,0.6,0.67,0.93c0.08,2.25,0.06,2.26,2.33,2.36c1.8,0.08,3.58,1.89,3.63,3.69
			c0.02,0.62,0.03,1.24,0.07,1.86c0.28,4.41-3.32,8.23-7.79,8.34c-1.96,0.05-3.33-1.01-4.66-2.21c-0.22-0.2-0.46-0.38-0.69-0.56
			c-0.08,0.27-0.1,0.56-0.24,0.79c-0.24,0.41-0.5,1.03-0.85,1.11c-0.64,0.14-1.43,0.13-2.03-0.12c-1.41-0.6-2.7-1.56-4.14-2
			c-0.52-0.16-1.48,0.64-2.02,1.21c-1.04,1.09-2.04,1.23-3.06,0.21c-1.4-1.4-2.85-1.86-4.53-0.89c-2.39,1.38-4.65,3.01-6.88,4.66
			c-0.9,0.67-1.79,1.77-2.85,1.07c-0.77-0.51-1.12-1.74-1.5-2.71c-0.2-0.5-0.05-1.14-0.06-1.72
			C105.77,81.25,105.68,81.21,105.59,81.18z M120.5,73.54l-0.03-0.02c-0.04,0.26-0.06,0.53-0.12,0.79
			c-0.42,1.64,0.03,2.16,1.69,1.71c1.18-0.32,2.32-0.81,3.44-1.31c0.9-0.4,1.78-1.06,1.59,0.77c-0.02,0.2,0.25,0.43,0.38,0.64
			c0.13-0.21,0.33-0.41,0.37-0.64c0.12-0.74,0.2-1.49,0.25-2.24c0.05-0.77-0.3-0.96-0.97-0.61c-0.81,0.43-1.61,0.9-2.45,1.26
			c-0.87,0.36-1.79,0.6-2.69,0.9c0.24-0.91,0.5-1.81,0.7-2.73c0.11-0.52,0.09-1.06,0.13-1.59c-0.52,0.22-1.14,0.33-1.56,0.68
			c-2.12,1.81-4.18,3.69-6.27,5.52c-0.25,0.22-0.6,0.32-0.9,0.47c-0.08-0.32-0.2-0.64-0.23-0.96c-0.22-2.18,0.3-4.23,1.12-6.21
			c0.72-1.73,1.59-3.4,2.39-5.1c0.12-0.26,0.25-0.52,0.38-0.78c-0.33,0.07-0.81,0.03-0.97,0.23c-0.64,0.82-1.28,1.67-1.74,2.6
			c-1.64,3.3-3.09,6.67-2.49,10.5c0.08,0.51,0.46,1.41,0.56,1.39c0.68-0.13,1.43-0.32,1.97-0.74
			C116.91,76.61,118.69,75.06,120.5,73.54z"/>
		<path class="st10" d="M107.3,440.74c0.72,0.19,1.43,0.44,2.17,0.54c0.68,0.09,1.43,0.17,2.07-0.01c1.46-0.39,1.78-1.44,0.66-2.4
			c-1.29-1.11-2.73-2.07-4.18-2.97c-1.21-0.75-0.31-1.43-0.03-2.07c0.35-0.79,0.94-0.64,1.65-0.29c3.73,1.85,7.64,3.09,11.85,2.91
			c0.92-0.04,1.82-0.59,2.75-0.81c0.21-0.05,0.73,0.28,0.72,0.43c-0.06,1.59-0.04,3.21-0.37,4.75c-0.15,0.71-0.99,1.34-1.64,1.83
			c-0.15,0.12-0.81-0.61-1.28-0.7c-0.59-0.11-1.42-0.22-1.82,0.1c-2.98,2.39-5.86,4.92-8.82,7.34c-1.05,0.86-2.28,1.49-3.38,2.29
			c-1.31,0.95-2.64,1.9-3.86,2.97c-2.87,2.53-6.25,3.78-10,4.13c-0.17,0.02-0.62-0.59-0.55-0.75c0.51-1.25,1.04-2.51,1.71-3.69
			c1.57-2.75,3.22-5.46,4.84-8.18c0.43-0.72,0.79-1.25,1.64-0.24c1.17,1.41,1.26,1.33-0.55,1.94c-0.25,0.08-0.52,0.13-0.74,0.27
			c-0.15,0.1-0.21,0.32-0.31,0.49c0.19,0.06,0.39,0.19,0.56,0.16c1.25-0.26,2.51-0.5,3.73-0.85c0.76-0.22,0.94-0.64,0.2-1.24
			c-0.75-0.61-1.47-1.28-2.12-2c-0.21-0.24-0.28-0.75-0.19-1.07c0.06-0.18,0.59-0.34,0.89-0.3c0.64,0.08,1.29,0.25,1.9,0.47
			c0.7,0.25,1.35,0.78,2.05,0.86c0.71,0.08,1.52-0.15,2.17-0.47c0.16-0.08,0.01-1.15-0.25-1.62
			C108.41,441.89,107.8,441.35,107.3,440.74C107.29,440.74,107.3,440.74,107.3,440.74z"/>
		<path class="st10" d="M132.48,435.03c3.62,0.21,6.1-0.71,8.55-1.75c0.8-0.34,1.36-0.59,2.14,0.26c0.94,1.01,2.22,1.71,3.32,2.58
			c0.5,0.4,0.52,0.67-0.23,0.94c-1.9,0.68-3.76,1.48-5.62,2.25c-0.2,0.08-0.34,0.32-0.5,0.49c0.2,0.04,0.43,0.16,0.61,0.12
			c1.5-0.37,3-0.76,4.49-1.15c0.81-0.21,1.61-0.44,2.43-0.61c0.24-0.05,0.53,0.1,0.79,0.16c-0.14,0.24-0.23,0.53-0.42,0.71
			c-1.3,1.19-2.64,2.33-3.92,3.54c-0.27,0.25-0.32,0.74-0.47,1.12c0.36,0.13,0.73,0.4,1.08,0.37c1.48-0.1,2.95-0.29,4.43-0.45
			c0.21-0.02,0.41-0.08,0.62-0.12c-0.11,0.22-0.21,0.45-0.34,0.66c-0.07,0.11-0.2,0.19-0.26,0.3c-0.29,0.58-0.56,1.18-0.84,1.77
			c0.79,0.3,1.57,0.72,2.39,0.86c0.51,0.09,1.09-0.34,1.65-0.38c0.63-0.05,1.26,0.08,1.9,0.14c-0.23,0.45-0.47,0.89-0.69,1.34
			c-0.29,0.57,0.58,1.97,1.27,1.98c0.09,0,0.25-0.32,0.27-0.51c0.04-0.32-0.11-0.69-0.01-0.98c0.46-1.32,0.98-1.48,1.86-0.46
			c2.16,2.5,4.28,5.05,6.34,7.64c0.34,0.43,0.34,1.14,0.5,1.72c-0.53,0.11-1.12,0.42-1.59,0.29c-2.08-0.56-4.15-1.18-6.18-1.91
			c-3.9-1.39-7.58-3.21-10.75-5.95c-2.19-1.89-4.4-3.76-6.59-5.65c-0.2-0.17-0.39-0.38-0.5-0.61c-0.69-1.46-1.36-2.87-3.2-1.1
			c-0.17,0.16-0.83-0.04-1.16-0.25c-0.78-0.51-1.49-1.11-2.22-1.68c-1.63-1.27-1.96-2.41-1.29-4.35
			C130.8,435.08,131.03,434.98,132.48,435.03z"/>
		<path class="st8" d="M96.98,268.79c1.11,0.52,2.13,1.01,3.15,1.49c-0.12,0.09-0.22,0.21-0.35,0.26c-1.27,0.54-1.47,1.31-1.17,2.72
			c0.39,1.85,0.23,3.82,0.29,5.74c0,0.15-0.13,0.31-0.2,0.46c-0.16-0.12-0.38-0.21-0.47-0.37c-0.69-1.17-1.33-2.36-2.04-3.51
			c-0.22-0.35-0.63-0.59-0.95-0.88c-0.16,0.42-0.55,0.92-0.45,1.26c0.63,2.16,1.8,3.95,3.73,5.21c0.2,0.13,0.31,0.49,0.34,0.75
			c0.27,2.62,0.51,5.24,0.77,7.86c0.11,1.07-0.32,1.2-1.22,0.82c-4.03-1.74-7.03-4.67-9.55-8.18c-1.7-2.38-2.63-5.08-3.41-7.84
			c-0.26-0.93-0.26-1.74,1.06-1.91c1.47-0.19,2.92-0.69,4.39-0.78c2.15-0.14,3.8-1.16,5.34-2.49
			C96.51,269.17,96.78,268.96,96.98,268.79z M88.41,277.81c-0.06,0.31-0.16,0.49-0.11,0.62c0.2,0.58,0.41,1.17,0.67,1.73
			c1.35,2.81,3.89,4.54,6.04,6.62c0.68,0.66,1.62,1.06,2.48,1.5c0.29,0.15,0.7,0.05,1.06,0.07c-0.24-0.28-0.44-0.61-0.72-0.84
			c-3.25-2.59-6.47-5.21-8.75-8.78C88.92,278.47,88.72,278.23,88.41,277.81z M90.9,275.47c-0.03,0.74-0.19,1.2-0.03,1.48
			c0.84,1.49,1.7,2.97,2.65,4.39c0.96,1.41,2.01,2.75,3.09,4.07c0.28,0.35,0.77,0.6,1.22,0.73c0.25,0.07,0.6-0.21,0.9-0.34
			c-0.18-0.21-0.32-0.47-0.54-0.63c-0.68-0.5-1.61-0.83-2.06-1.48c-1.61-2.36-3.06-4.83-4.57-7.25
			C91.43,276.22,91.27,276.01,90.9,275.47z"/>
		<path class="st8" d="M129.62,131.29c-6.54,1-10.71-0.41-14.65-2.79c-0.71-0.43-0.76-0.65-0.32-1.27c0.53-0.75,1.06-1.54,1.39-2.39
			c0.5-1.28,1.06-0.83,1.9-0.35c1.56,0.88,3.16,1.84,4.86,2.29c1.98,0.52,4.11,0.23,5.81-1.04c1.88-1.41,3.56-3.09,5.36-4.6
			c0.15-0.13,0.68,0.02,0.91,0.2c1.4,1.09,2.76,2.23,4.14,3.33c0.16,0.13,0.42,0.13,0.62,0.21c0.64,0.25,1.27,0.52,1.91,0.77
			c-0.46,0.55-0.94,1.09-1.39,1.64C136.93,131.31,131.99,130.56,129.62,131.29z"/>
		<path class="st8" d="M156.74,279.92c0.2-0.76-0.49-2.23,1.41-2.01c0.13,0.01,0.34-0.27,0.43-0.45c0.92-1.91,1.84-3.83,2.73-5.76
			c0.11-0.24,0.03-0.56,0.04-0.84c-0.25,0.12-0.62,0.18-0.75,0.38c-0.86,1.41-1.66,2.86-2.52,4.28c-0.24,0.39-0.59,0.71-0.9,1.06
			c0-0.43-0.1-0.89,0-1.3c0.44-1.79-0.29-3.92,1.45-5.32c0.63-0.51,1.34-0.97,2.09-1.27c2.05-0.82,4.14-1.52,6.2-2.31
			c1.12-0.43,1.58-0.19,1.59,1.02c0.03,3.32-1.11,6.32-2.65,9.17c-1.89,3.5-3.78,7.02-6.66,9.84c-0.56,0.55-1.36,0.86-2.04,1.28
			c-0.21-0.77-0.45-1.53-0.61-2.3c-0.08-0.38,0.04-0.8,0.02-1.19c-0.05-0.8,0.03-1.3,1.11-1.21c0.49,0.04,1.25-0.43,1.52-0.88
			c1.68-2.88,3.27-5.82,4.87-8.75c0.12-0.22,0.11-0.52,0.1-0.78c-0.01-0.19-0.13-0.38-0.2-0.57c-0.14,0.13-0.33,0.24-0.43,0.4
			c-1.34,2.29-2.64,4.6-4,6.87c-0.43,0.72-0.96,1.39-1.52,2c-0.3,0.32-0.78,0.46-1.18,0.68c-0.04-0.37-0.1-0.75-0.13-1.12
			C156.7,280.57,156.73,280.3,156.74,279.92z"/>
		<path class="st6" d="M153.26,252.79c-0.19,1.44-0.41,3.21-0.65,4.99c-0.23,1.69-1.59,2.32-2.88,2.91c-1.2,0.55-2.5,0.88-3.75,1.31
			c-0.64,0.22-0.86,0.12-0.7-0.66c0.46-2.24,0.78-4.52,1.28-6.75c0.1-0.46,0.71-0.94,1.19-1.15c1.51-0.66,3.09-1.18,4.63-1.78
			C153.22,251.33,153.86,251.2,153.26,252.79z"/>
		<path class="st6" d="M138.75,260.76c-0.25,2.99-0.25,3.01-3.19,3.38c-1.18,0.15-2.38,0.2-3.56,0.34c-0.82,0.1-1.09-0.14-0.94-1.01
			c0.34-1.99,0.57-4.01,0.9-6c0.04-0.23,0.39-0.56,0.62-0.59c1.75-0.2,3.51-0.36,5.27-0.45c0.23-0.01,0.68,0.41,0.71,0.66
			C138.68,258.29,138.69,259.52,138.75,260.76z"/>
		<path class="st6" d="M123.99,260.3c0.03-3.56,0.03-3.56,3.58-3.45c2.98,0.09,3.07,0.22,2.58,3.22c-0.19,1.17-0.14,2.39-0.42,3.53
			c-0.11,0.47-0.79,1.08-1.26,1.12c-1.31,0.13-2.65,0.06-3.96-0.09c-0.32-0.04-0.81-0.68-0.81-1.05
			C123.69,262.5,123.88,261.4,123.99,260.3z"/>
		<path class="st6" d="M115.29,263.84c-3.32-0.33-3.41-0.4-4.33-3.67c-0.14-0.51-0.26-1.02-0.36-1.54c-0.64-3.1-0.4-3.34,2.72-2.74
			c0.3,0.06,0.6,0.17,0.9,0.2c2.17,0.19,2.17,0.26,2.26,2.42c0.06,1.53,0.31,3.05,0.57,4.56c0.11,0.68,0.13,1.05-0.7,0.89
			C116,263.89,115.64,263.88,115.29,263.84z"/>
		<path class="st6" d="M140.25,258.42c0.06-2.52,0.06-2.52,2.56-3.21c2.14-0.59,2.36-0.44,2.11,1.78c-0.14,1.26-0.52,2.5-0.73,3.75
			c-0.31,1.88-1.61,2.44-3.27,2.68c-0.81,0.12-1.16-0.05-1.06-0.93C140.03,261.14,140.13,259.78,140.25,258.42z"/>
		<path class="st6" d="M120.11,256.58c2.36,0.01,2.63,0.4,2.38,2.77c-0.14,1.31-0.07,2.64-0.06,3.96c0,0.88-0.3,1.25-1.27,1.17
			c-2.71-0.22-3.09-0.63-3.28-4.01c-0.03-0.56-0.02-1.13-0.01-1.69C117.9,256.57,117.91,256.57,120.11,256.58z"/>
		<path class="st6" d="M110.31,263.27c-1.9-0.11-3.06-0.6-3.68-2.18c-0.69-1.77-1.65-3.43-2.44-5.16c-0.17-0.38-0.14-0.85-0.21-1.27
			c0.41,0,0.81,0.03,1.22,0.01c2.74-0.15,3.78,1.21,3.92,3.87c0.07,1.34,0.89,2.64,1.32,3.98
			C110.51,262.75,110.34,263.07,110.31,263.27z"/>
		<path class="st6" d="M99.79,254.27c2.58,0.22,2.69,0.2,3.08,2.55c0.3,1.81,1.03,3.34,2.1,4.77c0.12,0.16,0.16,0.38,0.24,0.58
			c-0.17,0-0.35,0.05-0.5,0c-1.42-0.43-2.84-0.86-4.25-1.32c-1.52-0.5-1.84-1.65-1.62-3.1c0.13-0.87,0.31-1.78,0.18-2.63
			C98.88,254.2,99.17,254.1,99.79,254.27z"/>
		<path class="st6" d="M158.18,250.47c-0.22,0.72-0.48,1.29-0.57,1.89c-0.15,0.9-0.34,1.84-0.25,2.73c0.18,1.84-1.17,3.38-3.06,3.25
			c-0.17-0.01-0.48-0.39-0.46-0.54c0.4-2.24,0.67-4.54,1.38-6.68c0.26-0.77,1.59-1.19,2.44-1.77
			C157.85,249.76,158.04,250.16,158.18,250.47z"/>
		<path class="st6" d="M119.42,137.68c-2.07-0.06-2.61-0.37-2.26-1.96c0.3-1.33,0.88-3.04,1.9-3.66c1.06-0.65,2.93,1.17,2.89,2.39
			C121.87,137.55,121.71,137.74,119.42,137.68z"/>
		<path class="st6" d="M124.78,138.13c-2.01-0.17-2.01-0.17-1.64-2.1c0.05-0.26,0.11-0.52,0.16-0.78c0.12-0.68,0.1-1.89,0.36-1.95
			c0.95-0.23,2-0.11,3.01-0.04c0.22,0.01,0.61,0.35,0.61,0.53c-0.02,1.2,0.08,2.47-0.31,3.56
			C126.79,137.81,125.54,137.88,124.78,138.13z"/>
		<path class="st6" d="M133.75,132.36c0.22-0.13,0.47-0.38,0.76-0.46c1.01-0.27,2.05-0.67,3.06-0.62c0.54,0.02,1.17,0.78,1.54,1.35
			c0.35,0.53,0.76,1.34-0.23,1.75c-1.21,0.5-2.45,0.94-3.7,1.33c-0.2,0.06-0.7-0.21-0.77-0.42
			C134.15,134.41,134,133.5,133.75,132.36z"/>
		<path class="st6" d="M128.4,136.9c0.2-1.52,0.07-2.81,0.6-3.7c0.32-0.53,1.68-0.49,2.59-0.58c0.61-0.06,2.05,2.87,1.46,3.35
			c-1.05,0.87-2.57,1.21-3.94,1.64C128.92,137.67,128.5,137,128.4,136.9z"/>
		<path class="st6" d="M115.14,136.46c-1.89-0.03-2.69-1.04-2.11-2.49c0.42-1.06,1.15-2,1.78-2.96c0.65-0.99,1.44-0.45,2.01,0.04
			c0.22,0.19,0.05,0.94-0.08,1.39c-0.34,1.14-0.75,2.25-1.16,3.36C115.46,136.09,115.21,136.34,115.14,136.46z"/>
		<path class="st6" d="M114.24,129.6c-0.48,0.39-0.99,0.63-1.2,1.02c-0.61,1.11-1.07,2.31-1.66,3.43c-0.11,0.2-0.55,0.23-0.84,0.33
			c-0.02,0.01-0.07-0.05-0.1-0.08c-2.63-2.15-2.5-1.52-0.32-4.06c0.86-1,1.91-2.09,3.49-1.04
			C113.77,129.31,113.94,129.41,114.24,129.6z"/>
		<path class="st6" d="M164.86,260.68c0.1,0.21,0.32,0.52,0.42,0.86c0.28,1.05,0.73,2.13,0.65,3.16c-0.03,0.49-1.12,1.29-1.71,1.27
			c-0.98-0.04-2.08-0.4-2.14-1.85C161.99,261.93,162.87,260.64,164.86,260.68z"/>
		<path class="st6" d="M141.37,133.29c-0.04,0.01-0.11,0.03-0.12,0.02c-0.57-0.97-1.39-1.89-1.58-2.92c-0.1-0.54,0.8-1.44,1.45-1.89
			c0.34-0.24,1.14,0.07,1.68,0.28c0.63,0.24,1.2,0.63,1.79,0.96c-0.47,0.68-0.93,1.37-1.42,2.04c-0.47,0.63-0.98,1.24-1.48,1.86
			C141.59,133.52,141.48,133.41,141.37,133.29z"/>
		<path class="st6" d="M91.33,270.23c-0.59-1.46-1.44-2.56-1.27-3.47c0.13-0.73,1.5-1.23,2.32-1.83c0.63,1.04,1.6,2.03,1.73,3.13
			C94.17,268.57,92.61,269.28,91.33,270.23z"/>
		<path class="st8" d="M105.01,94.34c0.3,0.46,0.47,0.62,0.51,0.8c0.75,3.16,1.48,6.32,2.21,9.48c0.03,0.15-0.01,0.31-0.02,0.46
			c-0.14-0.1-0.31-0.18-0.41-0.31c-2-2.62-2.91-5.62-2.95-8.89C104.34,95.45,104.71,95.01,105.01,94.34z"/>
		<path class="st8" d="M144.97,96.1c-0.84,2.57-1.68,5.14-2.55,7.7c-0.07,0.21-0.33,0.36-0.5,0.54c-0.04-0.24-0.16-0.48-0.12-0.7
			c0.63-3.29,1.29-6.58,1.95-9.87c0.03-0.15,0.16-0.28,0.25-0.42c0.14,0.14,0.37,0.26,0.4,0.42c0.14,0.73,0.22,1.47,0.32,2.2
			C144.81,96.02,144.89,96.06,144.97,96.1z"/>
		<path class="st10" d="M110.05,440.06c-1.79-0.38-3.4-0.71-5.02-1.06c-0.1-0.02-0.28-0.17-0.27-0.18c0.38-0.68,0.73-1.39,1.21-1.99
			c0.11-0.14,0.75,0.02,1.07,0.2c1.06,0.59,2.11,1.23,3.13,1.89c0.37,0.24,0.64,0.62,0.96,0.93
			C110.71,439.93,110.3,440.01,110.05,440.06z"/>
		<path class="st6" d="M84.47,267.2c0.55,0.16,1.23,0.16,1.38,0.45c0.45,0.83,0.74,1.77,0.97,2.69c0.03,0.12-0.65,0.6-1.01,0.6
			c-0.59,0-1.26-0.14-1.75-0.45c-0.35-0.22-0.48-0.82-0.66-1.26c-0.23-0.54-0.41-1.1-0.61-1.65
			C83.37,267.44,83.95,267.31,84.47,267.2z"/>
		<path class="st6" d="M146.74,126.39c-0.52,0.68-0.97,1.28-1.43,1.88c-0.65-0.62-1.39-1.16-1.93-1.87
			c-0.47-0.62-0.71-1.41-1.04-2.13c-0.12-0.26-0.2-0.54-0.29-0.81c0.25,0.03,0.53,0,0.75,0.1c0.99,0.46,2,0.89,2.93,1.45
			C146.12,125.26,146.33,125.82,146.74,126.39z"/>
		<path class="st6" d="M159.22,263c0.01-0.27-0.05-0.56,0.05-0.79c0.12-0.27,0.38-0.48,0.58-0.71c0.29,0.34,0.81,0.67,0.83,1.03
			c0.08,1.54-0.16,3.14,1.38,4.19c0.02,0.01-0.16,0.49-0.31,0.53c-1.1,0.33-2.16-0.29-2.38-1.49c-0.17-0.9-0.14-1.84-0.19-2.76
			C159.19,263,159.2,263,159.22,263z"/>
		<path class="st6" d="M169.52,261.25c-0.43,0.71-0.81,1.46-1.29,2.12c-0.62,0.84-1.05,0.49-1.3-0.32c-0.1-0.33-0.11-0.7-0.23-1.03
			c-0.42-1.15-0.09-1.68,1.14-2.05c1.23-0.37,1.88-0.58,1.32,1.09C169.29,261.12,169.41,261.18,169.52,261.25z"/>
		<path class="st6" d="M97.19,262.69c-0.26,1.06-0.48,2.13-0.8,3.18c-0.08,0.27-0.51,0.67-0.71,0.63c-0.36-0.07-0.83-0.35-0.96-0.67
			c-0.21-0.51-0.45-1.3-0.21-1.66c0.6-0.89,1.46-1.61,2.23-2.39c0.07-0.08,0.22-0.08,0.33-0.12C97.11,262,97.15,262.33,97.19,262.69
			z"/>
		<path class="st10" d="M147.42,442.46c-0.29-0.09-0.53-0.16-0.76-0.23c0.15-0.2,0.28-0.43,0.47-0.59c0.67-0.57,1.33-1.16,2.06-1.65
			c0.22-0.15,0.77-0.1,0.97,0.08c0.38,0.33,0.62,0.83,0.91,1.25c-0.42,0.19-0.83,0.44-1.27,0.56
			C149.01,442.12,148.19,442.28,147.42,442.46z"/>
		<path class="st10" d="M107.86,443.38c-0.42-0.02-0.66,0.02-0.87-0.04c-1.37-0.4-2.74-0.8-4.09-1.26
			c-0.17-0.06-0.38-0.55-0.31-0.65c0.29-0.4,0.88-1.08,1.01-1.01c1.33,0.72,2.59,1.57,3.87,2.39
			C107.57,442.89,107.62,443.03,107.86,443.38z"/>
		<path class="st6" d="M107.58,130.98c-0.08-0.39-0.32-0.86-0.18-1.04c0.89-1.17,1.85-2.29,2.83-3.39c0.1-0.12,0.55-0.08,0.69,0.05
			c0.12,0.11,0.14,0.54,0.03,0.68c-0.97,1.18-1.99,2.33-2.99,3.49C107.9,130.82,107.81,130.85,107.58,130.98z"/>
		<path class="st6" d="M90.14,270.1c-0.3,0.07-0.6,0.18-0.91,0.18c-0.34,0-0.91,0-0.98-0.17c-0.39-0.91-0.68-1.88-0.94-2.84
			c-0.04-0.13,0.25-0.42,0.45-0.52c0.15-0.07,0.51-0.02,0.57,0.09c0.51,0.91,0.97,1.84,1.45,2.77
			C89.9,269.77,90.02,269.94,90.14,270.1z"/>
		<path class="st10" d="M154.26,444.81c-0.28,0.09-0.44,0.17-0.61,0.21c-0.89,0.18-1.78,0.34-2.67,0.51c-0.2,0.04-0.4,0.04-0.6,0.05
			c0.1-0.19,0.15-0.43,0.3-0.56c0.55-0.49,1.11-0.98,1.72-1.39c0.21-0.14,0.67-0.15,0.85-0.01
			C153.62,443.9,153.87,444.33,154.26,444.81z"/>
		<path class="st6" d="M157.52,265.86c0.03-0.7,0.04-1.41,0.09-2.11c0.01-0.14,0.16-0.27,0.25-0.4c0.05,0.14,0.12,0.28,0.14,0.43
			c0.19,1.19,0.43,2.38,0.52,3.59c0.02,0.29-0.47,0.62-0.72,0.94c-0.11-0.24-0.29-0.48-0.31-0.73c-0.06-0.57-0.03-1.14-0.04-1.71
			C157.47,265.86,157.49,265.86,157.52,265.86z"/>
		<path class="st11" d="M107.29,440.74c-0.01-0.02-0.01-0.05-0.02-0.07C107.28,440.69,107.29,440.71,107.29,440.74
			C107.3,440.74,107.29,440.74,107.29,440.74z"/>
		<path class="st11" d="M158.44,164.68c0.03-0.01,0.06-0.02,0.09-0.02C158.5,164.66,158.47,164.67,158.44,164.68
			C158.44,164.68,158.44,164.68,158.44,164.68z"/>
		<path class="st11" d="M101.72,232.18c0.05-0.04,0.1-0.09,0.15-0.13c-0.03,0.02-0.05,0.05-0.08,0.07c-0.03,0.02-0.06,0.03-0.1,0.05
			C101.7,232.17,101.72,232.18,101.72,232.18z"/>
		<path class="st11" d="M120.5,73.54c0.02-0.07,0.04-0.15,0.06-0.22c-0.03,0.07-0.06,0.13-0.09,0.2
			C120.47,73.52,120.5,73.54,120.5,73.54z"/>
		<path class="st12" d="M106.68,254.01c0,0,16.36,3.5,22.8,2.56c6.43-0.93,24.03-4.76,26.42-6.62c2.39-1.85,4.44-4.69,3.82-9.17
			s-3.15-9.62-2.42-13.67s2.3-10,2.3-10s-2.34,0.3-3.63,3.75c-1.29,3.45-2.1,9.82-1.46,13.72c0.64,3.9,1.06,8.19-0.94,9.86
			c-2,1.67-6.82,6.35-17.14,7.34S106.68,254.01,106.68,254.01z"/>
		<path class="st12" d="M97.37,259.3c0,0-1.05-3.14-0.48-8.16c0.57-5.02,0.84-7.15,0.2-11.05c-0.64-3.9-2.19-3.96-1.61-9.17
			c0.58-5.22,2.18-12.14,2.18-12.14L95,211.88c0,0-1.22,1.51-0.93,4.23c0.29,2.73-1.8,6.92-2.31,10.39s-1.09,8.69,0.74,11.67
			c1.83,2.98,1.04,8.77,0.92,12.06c-0.12,3.29,2.59,8.82,0.6,10.3c-1.99,1.48-8.1,4.17-8.1,4.17l-3.53,1.04c0,0,4.61,1.33,7.77-0.3
			C93.33,263.81,94.95,264.33,97.37,259.3z"/>
		<path class="st12" d="M100.49,199.28l0.64-1.72l1.45-2.47l-1-4.5l9.64-3.73c0,0,0.29,2.73-1.27,3.06
			c-1.56,0.33-4.64-0.36-4.92,1.96c-0.28,2.32,0.23,4.47-1.16,5.39S100.49,199.28,100.49,199.28z"/>
		<path class="st12" d="M164.45,135.4c-2.58-4.08,9.96,14.51,11.29,21.37c1.33,6.86,3.39,22.4,3.25,26.32
			c-0.14,3.93-2.47,10.39-2.5,11.18c-0.03,0.79,2.07,7.94,1.46,10.53c-0.62,2.6-3.75,9.56-3.75,9.56s1.26,16.03,1.02,22.57
			c-0.23,6.54-1.85,15.13-2.98,17.19s-7.79,5.22-7.79,5.22l-4.22,0.63c0,0,3.51-2.76,6.78-6.31c3.27-3.55,5.5-7.14,5.18-12.92
			s0.2-12.83,0.28-15.19s-4.81-11.96-2.37-14.24c2.44-2.27,5.12-4.01,4.73-7.69s-3.73-5.64-1.47-10.01
			c2.25-4.37,2.67-8.55,2.33-13.8c-0.34-5.25-4.49-13.53-3.74-19.79S168.17,141.3,164.45,135.4z"/>
		<path class="st12" d="M95.22,209.69l0.08-16.77l2.42-16.42l0.61-9.67c0,0-3.25,3.03-3.13,6.96c0.12,3.93,0.72,9.2-1.21,11.75
			c-1.93,2.55-2.4,8.56-1.76,12.51S95.22,209.69,95.22,209.69z"/>
		<path class="st12" d="M157.54,210.88l3.33-5.12l-3.8-3.54c0,0,2.59-6.46,2.55-12.75s-0.89-18.9-0.89-18.9l-0.54-6.83
			c0,0-4.16,6.4-3.27,10.89c0.89,4.49,0.4,10.76,0.4,10.76s-8.14,3.33-8.3,4.94c-0.16,1.61,5.41,2.55,5.41,2.55s2.53,2.45,1.64,5.3
			c-0.89,2.85-1.24,5.46,0.29,6.56C155.89,205.84,157.54,210.88,157.54,210.88z"/>
		<path class="st12" d="M122.66,138.87c0,0,10.99,1.08,15.01-2.08c4.03-3.16,8.11-7.05,8.11-7.05l1.68-3.08l3.35,1.69
			c0,0-1.7,3.61-6.54,7.1S130.58,144.4,122.66,138.87z"/>
		<path class="st13" d="M152.29,260.11c0,0-1.3,6.4-0.16,10.53c1.14,4.13,0.07,10.11-0.52,14.6c-0.59,4.49-0.42,8.37-2.76,11.08
			c-2.35,2.71-3.98,3.08-3.98,3.08l2.72,2.03l-0.26,7.3l0.93,3.9l-0.45,6.43c0,0,0.64,6.26,0.75,9.06c0.11,2.8-2.92,3.55-1.76,7.03
			c1.17,3.48,2.53,7.4,2.53,7.4l1.87,1.79l-1.42-8.22l2.86-19.89l2.95-28.28l0.37-16.33l1.77-13.27L152.29,260.11z"/>
		<path class="st13" d="M125.22,283.44c0,0-3.08,8.06-3.94,13.83c-0.85,5.77,0.28,10.12-0.53,14.82s-3.06,13.44-2.31,16.47
			c0.75,3.04,1.23,7.57,1.99,10.39c0.76,2.82,0.2,6.46-0.94,8.14s3.74-2.23,3.74-2.23l0.68-6.86l-2.05-8.67l2.94-16.02l0.49-19.76
			L125.22,283.44z"/>
		<path class="st13" d="M119.49,347.09l2.25,3.09l-0.32,3l2.45,3.74l0.39,25.17l0.85,24.11l0.04,10.75l1.1,11.22l-1.3,6.4l-5.64,1.3
			l-5.97-1.29c0,0,3.64,0.35,6.27-1.06s4.58-1.77,3.89-6.53c-0.69-4.75-3.3-10.01-2.09-13.62c1.2-3.61,0.03-12.9,0.43-17.83
			c0.39-4.93,0.49-13.53-1.05-18.53s-1.53-5.22-0.48-10.55c1.05-5.34-0.48-10.55-1.46-13.17
			C117.86,350.68,119.49,347.09,119.49,347.09z"/>
		<path class="st13" d="M146.26,356.22l-0.22,6.01l0.71,10.13l-1.92,17.56l1.97,22.86l-2.27,15.4l-1.41,3.39l-7.4,2.53l-3.65-0.13
			c0,0,4.98-0.9,7.25-4.25c2.27-3.36,3.67-6.53,3.4-10.84c-0.28-4.31-0.13-8.39,0.21-11.82c0.34-3.43-0.4-6.89-0.86-12.07
			c-0.46-5.18-0.62-12.71,0.62-17.39s-0.57-8.19-0.18-12.91C142.9,359.97,146.26,356.22,146.26,356.22z"/>
		<path class="st14" d="M116.24,122.84c0,0,2.62,5.49,7.53,5.9c4.91,0.41,10.42-2.91,10.42-2.91l3.16-3.17l-3.4-3.41
			c0,0-5.15,6.38-7.97,6.28S116.24,122.84,116.24,122.84z"/>
		<path class="st14" d="M123.44,124.74c0,0,7.29-0.68,10.01-4.33c2.71-3.66,6.08-12.68,6.08-12.68l2.19-2.27
			c0,0,2.72-3.89,3.54-7.14c0.82-3.25,0.66-5.37,0.66-5.37l-2.53-1.5l-0.39-8.69l-3.53,0.34l-4.67-0.64c0,0,2.98,1.98,4,6.24
			c1.02,4.26,0.49,5.88-0.6,10.3c-1.1,4.42-2.13,7.19-3.19,10.44c-1.05,3.25-2.39,7.89-5.05,9.9S123.44,124.74,123.44,124.74z"/>
		<path d="M126.61,295.54c-0.33,4.66-0.7,9.33-0.96,13.99c-0.17,2.98-0.05,5.98-0.3,8.95c-0.23,2.68-0.79,5.32-1.18,7.98
			c-0.49,3.3-0.67,6.53,0.13,9.88c0.56,2.35,0.4,4.93,0.24,7.39c-0.09,1.48-1.13,2.66-2.58,3.27c-0.72,0.3-0.88,0.6-0.4,1.33
			c0.85,1.3,1.6,2.67,1.01,4.36c-0.09,0.26,0.28,0.67,0.42,1.02c0.5,1.24,1.35,2.47,1.43,3.74c0.17,2.64-0.27,5.32-0.1,7.96
			c0.19,2.9,0.83,5.78,1.17,8.67c0.13,1.07-0.07,2.18-0.04,3.27c0.14,4.52,0.15,9.06,0.5,13.56c0.51,6.57,0.08,13.11-0.02,19.67
			c-0.06,4.35,0.59,8.71,0.97,13.06c0.26,3.01-0.01,5.96-0.67,8.91c-0.16,0.72,0.37,1.58,0.28,2.35c-0.3,2.65-0.59,5.32-1.16,7.92
			c-0.34,1.56-2.11,2.05-3.71,1.48c-0.36-0.13-1.09,0.05-1.32,0.35c-3.03,3.89-6.99,6.66-11.06,9.28c-2.44,1.57-4.82,3.28-7.41,4.56
			c-2.72,1.34-5.63,2.33-8.51,3.28c-0.58,0.19-1.68-0.24-2.09-0.74c-0.35-0.43-0.26-1.47-0.02-2.1c2.68-6.81,6.98-12.7,10.73-18.9
			c1.64-2.71,3.72-5.15,5.59-7.72c0.15-0.21,0.27-0.54,0.21-0.77c-0.53-2.15-1.18-4.27-1.63-6.44c-0.6-2.84-1.14-5.69-1.55-8.57
			c-0.3-2.09-0.38-4.21-0.49-6.33c-0.27-5.12-0.52-10.24-0.73-15.36c-0.09-2.03,0.12-4.09-0.13-6.1
			c-0.71-5.73-1.49-11.46-2.44-17.15c-0.54-3.24-1.67-6.39-2.16-9.64c-0.22-1.45,0.2-3.18,0.84-4.54c1.11-2.39,1.31-4.67,0.55-7.17
			c-1.05-3.48-0.54-6.93,0.5-10.32c0.1-0.32,0.35-0.6,0.54-0.9c0.41-0.67,0.31-1.16,0.02-1.99c-0.84-2.38-1.57-4.89-1.74-7.39
			c-0.29-4.22-0.09-8.48-0.17-12.72c-0.07-3.99-0.4-7.98-0.28-11.96c0.1-3.3,0.71-6.57,1.04-9.86c0.07-0.69-0.05-1.42-0.18-2.11
			c-0.05-0.25-0.36-0.49-0.61-0.64c-2.14-1.23-4.49-2.18-6.4-3.7c-4.17-3.32-6.47-7.99-8-12.95c-0.75-2.45-3.03-3.8-3.6-6.29
			c-0.82-3.56-1.87-7.07-2.68-10.64c-0.17-0.75,0.15-1.67,0.39-2.46c0.78-2.58,0.72-5.02-0.21-7.63c-1.02-2.89-1.2-5.93-0.83-9.1
			c0.45-3.92,0.15-7.93,0.24-11.9c0.07-3-1.54-5.99-0.09-9c0.31-0.64,0.58-1.29,0.86-1.94c0.62-1.44,1.02-2.69-0.37-4.15
			c-1.55-1.63-1.23-3.8-0.86-5.92c0.33-1.89,0.36-3.84,0.48-5.77c0.02-0.25-0.19-0.62-0.4-0.77c-2.01-1.46-2.7-3.61-2.53-5.86
			c0.57-7.71,0.78-15.45,2.31-23.08c0.39-1.92-0.05-4.04-0.25-6.05c-0.54-5.24-0.07-10.26,2.66-14.94c1.17-2.01,1.91-4.29,3.19-6.21
			c1.87-2.79,4.55-4.77,7.53-6.29c2.69-1.38,5.44-2.65,8.15-4c2.28-1.14,4.56-2.26,6.76-3.55c0.54-0.31,0.72-1.23,1.08-1.86
			c1.3-2.3,3.24-3.68,5.86-4.07c0.33-0.05,0.71,0.09,1.02-0.01c0.55-0.17,1.3-0.32,1.53-0.73c0.27-0.48,0.27-1.31,0.05-1.84
			c-0.49-1.17-1.29-2.2-1.78-3.37c-1.19-2.85-2.26-5.74-3.42-8.6c-0.17-0.41-0.54-0.78-0.9-1.05c-4.32-3.18-6.76-7.29-6.53-12.8
			c0.06-1.43,0.57-2.43,2.1-2.56c0.83-0.07,0.92-0.52,0.92-1.23c0-1.78,0.09-3.55,0.14-5.33c0.01-0.26,0.07-0.57-0.04-0.78
			c-2.01-3.62-0.96-7.1,0.48-10.54c1.31-3.13,2.49-6.35,4.17-9.27c2.35-4.09,5.61-7.35,10.27-8.88c1.71-0.56,1.97-0.41,2.33,1.34
			c0.06,0.3,0.12,0.6,0.19,0.91c0.25,1.18,0.6,1.97,2.12,1.24c0.91-0.44,2.04-0.47,3.08-0.63c2.25-0.35,2.44-0.18,2.38,2.04
			c-0.09,3.49,0.48,3.88,3.77,2.49c2.28-0.97,4.65-0.97,7.05-0.77c1.11,0.09,1.3,1.01,1.25,1.85c-0.07,1.24-0.01,1.78,1.6,1.54
			c1.89-0.28,5.06,3.27,4.61,5.26c-0.26,1.17-0.29,2.47-0.07,3.65c0.38,2.04-0.81,3.31-2.18,4.09c-1.81,1.03-1.83,2.52-1.88,4.15
			c-0.06,1.98-0.1,3.97-0.12,5.95c0,0.25,0.02,0.64,0.17,0.74c0.62,0.38,1.67,0.52,1.86,1.01c0.36,0.95,0.51,2.15,0.26,3.12
			c-0.81,3.09-1.7,6.18-2.87,9.15c-0.53,1.34-1.84,2.37-2.75,3.57c-0.3,0.4-0.54,0.89-0.67,1.37c-0.83,3.04-1.82,6.03-3.86,8.48
			c-1.1,1.32-1.04,2.3,0.14,3.4c0.79,0.75,1.36,1.29,2.77,0.79c1.15-0.41,2.84,0.1,4.07,0.68c1.8,0.84,3.98,1.37,4.77,3.65
			c0.09,0.26,0.68,0.34,1.04,0.51c3.85,1.81,7.76,3.51,11.52,5.49c2.08,1.09,4.01,2.55,5.85,4.03c1.06,0.86,2.06,1.98,2.67,3.19
			c1.65,3.27,3.07,6.66,4.58,9.99c0.5,1.1,1.17,2.15,1.52,3.3c1.14,3.73,2.33,7.47,3.17,11.28c0.39,1.75-0.08,3.67,0.01,5.51
			c0.11,2.2,0.42,4.39,0.64,6.58c0.51,5.22,1.22,10.55-0.48,15.58c-0.77,2.28-0.47,4.12-0.35,6.28c0.19,3.41-0.31,6.88-0.75,10.29
			c-0.19,1.51-0.94,2.95-1.45,4.41c-1.13,3.27-0.33,6.6-0.31,9.9c0.01,2.56-0.01,5.11-0.06,7.67c-0.04,2.5-0.13,4.99-0.2,7.49
			c-0.06,2.24-0.37,4.51-0.13,6.72c0.36,3.34-1.16,6.29-1.56,9.46c-0.1,0.81-0.62,1.55-0.89,2.35c-0.49,1.44-0.93,2.9-1.4,4.35
			c-0.28,0.87-0.36,1.95-0.92,2.56c-1.16,1.26-0.81,2.67-0.62,3.97c0.62,4.25-0.56,8.11-2.74,11.56c-1.91,3.03-4.31,5.76-6.67,8.48
			c-1.07,1.24-2.6,2.07-3.84,3.18c-0.45,0.4-0.84,1.06-0.92,1.64c-0.48,3.76-0.89,7.54-1.29,11.31c-0.32,3.08-0.65,6.16-0.89,9.24
			c-0.15,1.98-0.07,3.97-0.24,5.94c-0.38,4.31-0.81,8.62-1.31,12.93c-0.18,1.6-0.82,3.16-0.88,4.76c-0.09,2.32,0.18,4.66,0.23,6.99
			c0.01,0.6-0.24,1.21-0.34,1.81c-0.24,1.41-0.65,2.82-0.64,4.23c0,2.47-1.7,4.12-2.71,6.07c-1.41,2.71-1.98,5.19-1.14,8.31
			c0.77,2.88,0.37,6.06,0.71,9.08c0.39,3.44-0.8,6.61-1.26,9.91c-0.52,3.76-0.5,7.62-0.45,11.43c0.04,3.33,0.52,6.65,0.69,9.99
			c0.25,4.89,0.63,9.79,0.48,14.68c-0.09,3.04-1.08,6.04-1.63,9.07c-0.23,1.28-0.17,2.62-1.18,3.69c-0.12,0.12,0.27,0.93,0.59,1.24
			c1.17,1.12,2.41,2.19,3.65,3.24c0.46,0.39,1.1,0.58,1.47,1.02c0.77,0.91,1.35,1.98,2.11,2.9c1.45,1.77,2.97,3.47,4.45,5.22
			c2.43,2.87,5.01,5.63,7.21,8.67c0.97,1.34,1.39,3.22,1.62,4.91c0.2,1.48-0.94,2.2-2.35,1.68c-7.36-2.74-14.55-5.82-20.69-10.9
			c-1.19-0.99-2.6-1.72-3.74-2.75c-1.29-1.16-2-3.33-4.39-2.07c-2.97-0.95-6.63-3.62-5.36-7.96c0.22-0.77-0.09-1.69-0.12-2.55
			c-0.04-1.48-0.08-2.96-0.07-4.44c0.01-4.05,0.05-8.11,0.04-12.16c0-1.32-0.06-2.65-0.22-3.96c-0.25-2.18-0.64-4.33-0.9-6.51
			c-0.23-1.97-0.51-3.95-0.52-5.93c-0.01-4.79,0.23-9.57,0.17-14.36c-0.06-4.95-0.47-9.9-0.51-14.85
			c-0.04-5.01,0.11-10.02,0.32-15.02c0.05-1.28,0.61-2.53,0.91-3.8c0.06-0.27,0.11-0.58,0.04-0.84c-0.2-0.81-0.34-1.67-0.71-2.4
			c-1.41-2.77-0.47-5.19,0.85-7.66c0.56-1.05,0.93-2.27,1.08-3.45c0.87-6.96-0.66-13.77-1.43-20.63c-0.5-4.47-0.98-8.94-1.27-13.43
			c-0.11-1.69,0.47-3.41,0.54-5.13c0.09-2.33-0.01-4.68-0.05-7.01c0-0.18-0.15-0.36-0.22-0.54c-0.09,0.19-0.26,0.37-0.27,0.56
			c-0.06,0.97-0.08,1.95-0.12,2.93C126.47,295.52,126.54,295.53,126.61,295.54z M107.3,440.74c-0.01-0.02-0.01-0.04-0.02-0.06
			C107.28,440.7,107.29,440.72,107.3,440.74c0.5,0.61,1.11,1.16,1.48,1.83c0.26,0.47,0.41,1.54,0.25,1.62
			c-0.65,0.33-1.46,0.55-2.17,0.47c-0.71-0.08-1.35-0.61-2.05-0.86c-0.61-0.22-1.25-0.39-1.9-0.47c-0.29-0.04-0.83,0.12-0.89,0.3
			c-0.1,0.32-0.03,0.83,0.19,1.07c0.65,0.72,1.36,1.39,2.12,2c0.74,0.6,0.56,1.02-0.2,1.24c-1.23,0.35-2.48,0.59-3.73,0.85
			c-0.17,0.03-0.37-0.1-0.56-0.16c0.1-0.17,0.16-0.39,0.31-0.49c0.21-0.14,0.49-0.19,0.74-0.27c1.81-0.61,1.73-0.53,0.55-1.94
			c-0.84-1.01-1.2-0.48-1.64,0.24c-1.63,2.72-3.27,5.43-4.84,8.18c-0.67,1.17-1.2,2.43-1.71,3.69c-0.06,0.16,0.38,0.76,0.55,0.75
			c3.75-0.34,7.12-1.6,10-4.13c1.22-1.07,2.54-2.02,3.86-2.97c1.1-0.8,2.33-1.44,3.38-2.29c2.96-2.42,5.84-4.94,8.82-7.34
			c0.39-0.31,1.23-0.21,1.82-0.1c0.47,0.09,1.12,0.82,1.28,0.7c0.65-0.49,1.48-1.12,1.64-1.83c0.33-1.54,0.32-3.16,0.37-4.75
			c0.01-0.14-0.52-0.48-0.72-0.43c-0.93,0.23-1.82,0.78-2.75,0.81c-4.21,0.18-8.12-1.06-11.85-2.91c-0.71-0.35-1.31-0.5-1.65,0.29
			c-0.28,0.64-1.18,1.32,0.03,2.07c1.45,0.9,2.89,1.86,4.18,2.97c1.11,0.95,0.8,2-0.66,2.4c-0.65,0.17-1.39,0.1-2.07,0.01
			C108.73,441.18,108.02,440.92,107.3,440.74z M158.44,164.68c-1.17-0.13-2.35-0.22-3.52-0.42c-0.19-0.03-0.3-0.53-0.44-0.82
			c0.28-0.14,0.57-0.39,0.85-0.39c1.56,0.01,3.12,0.1,4.67,0.14c0.51,0.01,1.02-0.07,1.53-0.1c-0.5,0.33-0.99,0.68-1.5,0.97
			c-0.38,0.21-0.8,0.02-0.49,0.92c0.56,1.61,0.86,3.44,0.75,5.14c-0.26,4.19-0.55,8.3,0.27,12.51c0.58,2.96,0.42,6.13,0.12,9.17
			c-0.29,2.87-1.22,5.67-1.82,8.51c-0.38,1.78,0.49,3.07,2.26,3.6c0.3,0.09,0.62,0.3,0.83,0.53c1.22,1.36,1.11,2.99-0.31,4.5
			c-0.64,0.68-1.51,1.19-1.97,1.96c-0.39,0.66-0.74,1.82-0.43,2.35c1.49,2.46,1.47,4.95,0.43,7.46c-1.7,4.12-1.38,8.24-0.38,12.43
			c0.77,3.24,1.54,6.49,2.07,9.78c0.24,1.46,0.02,3.05-0.24,4.53c-0.39,2.22-1.8,4.24-1.34,6.65c0.25,1.29,0.48,2.59,0.68,3.89
			c0.17,1.05,0.82,1.46,1.76,1.2c2.2-0.61,4.44-1.14,6.51-2.07c0.99-0.45,1.67-1.68,2.34-2.66c0.4-0.6,0.48-1.41,0.74-2.1
			c0.81-2.1,1.59-4.18,1.51-6.53c-0.08-2.15,0.09-4.31,0.21-6.47c0.07-1.28,0.27-2.55,0.34-3.82c0.08-1.4-0.07-2.83,0.14-4.21
			c0.68-4.32,0.7-8.59-0.53-12.83c-0.82-2.82-0.79-5.62,1.27-7.88c2.77-3.03,2.39-6.63,2.08-10.18c-0.11-1.3-0.71-2.72-1.52-3.74
			c-0.88-1.11-0.64-1.98-0.23-3.01c0.14-0.37,0.42-0.68,0.59-1.04c1.37-2.89,3.09-5.66,2.24-9.15c-0.88-3.57-1.19-7.22-0.92-10.91
			c0.03-0.43-0.06-0.87-0.12-1.31c-0.23-1.69-0.74-3.38-0.67-5.06c0.2-4.49-0.93-8.69-2.64-12.71c-1.46-3.43-3.2-6.76-5.06-9.99
			c-1.03-1.78-2.51-3.31-3.86-4.89c-1.03-1.2-2.16-2.34-3.3-3.44c-0.72-0.7-1.47-1.43-2.34-1.89c-2.83-1.5-5.83-2.71-8.56-4.36
			c-1.78-1.08-2.49-0.24-3.21,1.05c-1.2,2.14-3.15,3.5-4.97,5.01c-3.41,2.84-7.57,3.71-11.73,4.58c-6.72,1.41-13.33,1.5-19.32-2.41
			c-1.87-1.22-3.95-2.51-4.63-4.98c-0.04-0.15-0.42-0.34-0.58-0.29c-0.92,0.28-1.86,0.54-2.71,0.97c-2.8,1.4-5.6,2.8-8.34,4.32
			c-2.08,1.15-4.26,2.24-6.04,3.78c-2.41,2.09-4.04,4.87-5.62,7.67c-3.32,5.86-4.36,12.1-4.19,18.78c0.13,5.5-0.37,11.02-0.73,16.53
			c-0.16,2.41-0.79,4.78-0.93,7.19c-0.1,1.62-0.31,3.85,0.59,4.79c1.91,2.01,1.51,4.87,3.23,6.83c0.24,0.27,0.05,1.05-0.13,1.53
			c-0.58,1.52-1.23,3.01-1.91,4.49c-0.62,1.36-0.28,2.52,0.7,3.5c1.26,1.26,1.51,2.86,1,4.58c-1.03,3.44-1.82,6.93-0.07,10.42
			c1.04,2.07,0.88,4.15-0.28,6.09c-0.97,1.63-1.39,3.33-1.3,5.2c0.1,2.3,0.14,4.61,0.26,6.91c0.02,0.46,0.24,0.95,0.5,1.34
			c1.48,2.26,1.71,4.55,0.92,7.19c-0.54,1.79-0.47,3.8-0.45,5.71c0.01,1.07,0.53,2.13,0.73,3.21c0.34,1.83,2.46,3.51,4.12,3.16
			c2.89-0.62,5.69-1.42,8.24-3.06c2.66-1.71,4.2-4.05,3.17-6.53c-1.38-3.33-0.28-6.55-0.36-9.82c-0.06-2.43,0.17-5.07-0.69-7.24
			c-1.68-4.28-0.91-8.46-0.44-12.69c0.2-1.78,0.79-3.53,1.33-5.25c0.7-2.27-0.24-4.21-0.97-6.24c-0.55-1.51-1.55-3.3-1.16-4.61
			c0.88-2.96,0.36-5.82,0.27-8.7c-0.16-5.27-0.06-10.5,0.86-15.72c0.42-2.39,0.57-4.82,0.82-7.24c0.33-3.33,0.61-6.66,1-9.99
			c0.04-0.35,0.71-0.63,1.09-0.94c0.18,0.4,0.54,0.81,0.51,1.19c-0.22,2.59-0.53,5.17-0.79,7.76c-0.31,3.07-0.7,6.14-0.87,9.22
			c-0.31,5.53-0.49,11.07-0.7,16.61c-0.1,2.65,0.08,5.34-0.3,7.95c-0.21,1.48,0.05,2.59,0.58,3.9c0.65,1.6,1.32,3.37,1.26,5.05
			c-0.11,3.01-0.76,6-1.17,8.99c-0.42,3.01-0.63,5.99,1.12,8.74c0.36,0.57,0.63,1.32,0.64,1.99c0.1,3.7,0.16,7.41,0.12,11.12
			c-0.02,1.74,0.48,2.4,2.19,2.53c2.87,0.21,5.74,0.44,8.61,0.73c4.28,0.44,8.56,0.97,12.84,1.4c1.43,0.14,2.88,0.1,4.31,0.17
			c5.69,0.27,11.31-0.03,16.72-2.06c4.04-1.52,8.11-2.96,12.09-4.62c3.3-1.38,3.54-4.88,2.91-7.27c-0.32-1.2-0.44-2.46-0.62-3.7
			c-0.09-0.6-0.05-1.22-0.15-1.82c-0.45-2.51-1.04-4.99-1.39-7.51c-0.4-2.9,0.91-5.55,1.68-8.24c0.67-2.34,0.98-4.45-0.89-6.41
			c-0.85-0.89-1.08-2-0.24-3.12c0.72-0.94,1.44-1.88,2.14-2.84c0.35-0.48,0.65-1,0.97-1.51c-0.51-0.27-1.03-0.53-1.52-0.83
			c-0.37-0.22-0.86-0.42-1.03-0.76c-0.97-1.99-0.78-4.04,0.01-6.03c1.69-4.21,1.36-8.56,1-12.92c-0.27-3.25-0.59-6.5-0.74-9.76
			c-0.1-2.07,0.32-4.19,0.07-6.23C157.62,167.98,158.04,166.36,158.44,164.68c0.03-0.01,0.06-0.02,0.09-0.02
			C158.5,164.66,158.47,164.67,158.44,164.68z M106.7,413.14c-0.11,0.01-0.21,0.01-0.32,0.02c0.02,1.46-0.04,2.93,0.09,4.39
			c0.13,1.45,0.44,2.89,0.7,4.33c0.44,2.38,0.89,4.76,1.4,7.13c0.12,0.54,0.39,1.11,0.75,1.53c3.44,4.07,9.64,4.91,13.64,3.96
			c0.6-0.14,1.39-0.83,1.52-1.4c0.41-1.8,0.76-3.66,0.74-5.49c-0.02-2.82-0.37-5.63-0.56-8.45c-0.33-4.88-0.72-9.76-0.94-14.64
			c-0.23-5.12-0.29-10.26-0.45-15.39c-0.08-2.57-0.28-5.14-0.26-7.7c0.01-2.46,0.41-4.93,0.32-7.38c-0.13-3.38-0.69-6.74-0.82-10.12
			c-0.1-2.46,0.25-4.94,0.28-7.41c0.01-0.56-0.27-1.38-0.69-1.63c-1.81-1.1-1.95-1.31-1.25-3.18c0.54-1.44,0.18-2.12-1.31-2.47
			c-1.23-0.29-1.61-1.24-0.82-2.25c0.38-0.48,0.9-0.84,1.38-1.24c1.84-1.56,2.99-3.45,2.99-5.97c0-2.71-0.11-5.33-1.4-7.85
			c-0.78-1.52-0.64-3.21-0.07-4.99c0.68-2.1,0.81-4.4,1.01-6.63c0.39-4.39,0.71-8.79,0.94-13.19c0.18-3.35,0.13-6.7,0.3-10.05
			c0.08-1.62,0.48-3.22,0.64-4.84c0.3-3.11,0.52-6.23,0.78-9.35c0.06-0.68,0.19-1.36,0.29-2.04c0.43,0.73,0.89,1.43,1.28,2.18
			c0.16,0.3,0.15,0.69,0.21,1.04c0.37,2.23,0.87,4.44,1.07,6.69c0.28,3.1,0.41,6.22,0.48,9.33c0.08,3.35-0.37,6.76,0.1,10.04
			c0.94,6.52,2.42,12.96,3.56,19.45c0.41,2.32,0.79,4.72,0.66,7.05c-0.2,3.51-2.03,6.55-3.44,9.71c-0.51,1.15-0.66,2.67-0.4,3.91
			c0.36,1.77,1.42,3.43-0.27,5.05c-0.12,0.12-0.08,0.43-0.09,0.65c-0.1,2.46-0.22,4.91-0.27,7.37c-0.08,3.81-0.2,7.61-0.16,11.42
			c0.07,6.57,0.26,13.15,0.38,19.72c0.07,3.42-0.01,6.85,0.21,10.26c0.12,1.91,0.85,3.78,1.06,5.69c0.23,2.06,0.2,4.15,0.26,6.22
			c0.08,3.12,0.2,6.24,0.19,9.36c0,1.65-0.22,3.3-0.38,4.95c-0.11,1.13,0.37,1.73,1.48,1.95c2.95,0.59,5.83,0.43,8.52-0.97
			c1.83-0.95,3.64-2.24,3.9-4.42c0.5-4.16,1.53-8.22,1.63-12.48c0.15-6.02-1.09-11.83-1.96-17.68c-0.69-4.64-0.17-9.12,0.32-13.65
			c0.27-2.53,1-5.01,1.24-7.55c0.3-3.19,1.05-6.39,0.13-9.62c-0.4-1.39-0.93-2.82-0.93-4.23c-0.01-3.57,1.33-6.76,3.2-9.78
			c0.38-0.61,0.54-1.84,0.18-2.35c-1.16-1.68-0.5-2.66,0.75-3.86c2.08-1.99,2.18-5.53,0.65-7.83c-0.8-1.19-1.25-2.56-0.38-4.09
			c0.78-1.37,1.55-2.85,1.83-4.37c0.56-3.07,0.82-6.2,1.15-9.31c0.18-1.67,0.28-3.34,0.35-5.02c0.06-1.32-0.11-2.66,0.03-3.97
			c0.82-7.15,1.91-14.28,2.5-21.45c0.43-5.2,0.2-10.45,0.34-15.68c0.08-2.91,0.25-5.82,0.55-8.71c0.18-1.78,0.68-3.54,1.04-5.3
			c0.15-0.75-0.12-0.82-0.75-0.54c-2.31,1.01-4.6,2.1-6.97,2.96c-2.54,0.92-5.12,2.01-7.76,2.3c-5.18,0.56-10.42,0.6-15.63,0.89
			c-0.31,0.02-0.84,0.41-0.85,0.65c-0.1,1.67-0.12,3.34-0.1,5.02c0.02,1.32,0.08,2.65,0.25,3.96c0.06,0.49,0.35,1.22,0.71,1.35
			c1.05,0.38,2.2,0.51,3.31,0.74c0.17,0.04,0.34,0.09,0.51,0.13c-0.11,0.11-0.2,0.26-0.33,0.32c-1.99,0.94-5.98-0.32-7.05-2.29
			c-0.21-0.4-0.05-1-0.06-1.51c0.32,0.25,0.64,0.5,0.97,0.74c0.17,0.12,0.36,0.22,0.54,0.34c0.02-0.22,0.07-0.45,0.06-0.67
			c-0.12-2.42-0.26-4.84-0.38-7.26c-0.03-0.51,0.17-1.37-0.04-1.47c-0.49-0.24-1.15-0.14-1.75-0.16c-2.36-0.06-4.73,0.05-7.06-0.22
			c-2.78-0.32-5.54-0.9-8.29-1.5c-2.05-0.44-4.28-0.33-6.02-1.83c-0.04-0.03-0.46,0.2-0.46,0.31c0,1.82,0,3.64,0.1,5.46
			c0.01,0.21,0.58,0.5,0.92,0.57c1.58,0.33,2.31,1.63,1.27,2.78c-1.17,1.28-1.32,2.54-0.89,4.06c0.09,0.33,0.07,0.7,0.07,1.05
			c0.02,3.65-0.22,7.33,0.1,10.95c0.41,4.59,1.13,9.13,0.51,13.78c-0.35,2.66-0.25,5.39-0.35,8.08c-0.09,2.35-0.25,4.7-0.22,7.05
			c0.02,1.48,0.43,2.96,0.46,4.45c0.04,2.66-0.18,5.32-0.11,7.98c0.1,3.9,1.57,5.85,4.53,6.42c0.47,0.09,0.89,0.45,1.33,0.68
			c-0.28,0.53-0.48,1.14-0.88,1.55c-0.3,0.31-0.87,0.39-1.32,0.54c-2.44,0.81-3.52,2.72-2.95,5.25c0.44,1.95,1.09,3.89,1.29,5.86
			c0.3,2.82,0.57,5.64-0.64,8.44c-1.3,2.99-1.53,6.13-0.23,9.28c0.43,1.04,0.65,2.21,0.78,3.34c0.43,3.58,0.55,7.2,1.19,10.73
			c0.89,4.89,1.04,9.8,1.15,14.74c0.07,2.95,0.29,5.9,0.49,8.85C106.21,407.51,106.47,410.33,106.7,413.14z M142.17,88.27
			c0.04-1.08,0.11-2.49,0.11-3.91c0-0.18-0.48-0.57-0.63-0.52c-2.51,0.77-4.89,0.81-7.03-1.03c-0.18-0.15-0.66-0.07-0.94,0.06
			c-1.84,0.81-3.4,0.79-4.78-0.99c-0.85-1.1-1.77-0.85-2.8,0.07c-0.83,0.74-1.85,1.38-2.89,1.74c-0.88,0.31-1.86,0.26-2.39-0.99
			c-0.23-0.54-1.1-0.99-1.75-1.12c-2.24-0.47-3.89,0.75-5.42,2.19c-1.13,1.06-2.21,2.18-3.43,3.13c-0.63,0.49-1.56,1.02-2.26,0.91
			c-1.11-0.17-1.18,0.52-1.14,1.07c0.22,3.42-0.02,7,0.94,10.22c1.88,6.32,4.11,12.58,6.81,18.58c3.23,7.18,8.84,8.06,14.93,4.01
			c2.43-1.62,4.14-4.03,5.5-6.65c0.49-0.94,1.16-1.78,1.59-2.74c0.85-1.87,1.78-3.73,2.31-5.7c0.61-2.24,0.63-4.64,1.24-6.88
			C141.12,96.06,142.44,92.49,142.17,88.27z M105.59,81.18c0.09,0.03,0.19,0.07,0.28,0.1c0.01,0.58-0.14,1.21,0.06,1.72
			c0.38,0.97,0.73,2.2,1.5,2.71c1.06,0.71,1.95-0.4,2.85-1.07c2.23-1.64,4.49-3.27,6.88-4.66c1.68-0.97,3.14-0.51,4.53,0.89
			c1.01,1.02,2.02,0.87,3.06-0.21c0.54-0.57,1.51-1.37,2.02-1.21c1.45,0.44,2.73,1.4,4.14,2c0.6,0.25,1.39,0.27,2.03,0.12
			c0.35-0.08,0.6-0.7,0.85-1.11c0.14-0.23,0.16-0.52,0.24-0.79c0.23,0.19,0.47,0.36,0.69,0.56c1.33,1.2,2.7,2.26,4.66,2.21
			c4.47-0.11,8.07-3.93,7.79-8.34c-0.04-0.62-0.05-1.24-0.07-1.86c-0.04-1.8-1.82-3.61-3.63-3.69c-2.27-0.1-2.25-0.11-2.33-2.36
			c-0.01-0.33-0.38-0.86-0.67-0.93c-2.23-0.57-4.27-0.2-6.2,1.17c-1.01,0.72-2.24,1.28-3.45,1.53c-0.53,0.11-1.7-0.65-1.82-1.18
			c-0.3-1.39-0.24-2.87-0.19-4.3c0.03-0.83,0.05-1.31-1-0.96c-0.91,0.3-1.87,0.43-2.78,0.72c-2.13,0.67-2.69,0.39-3.33-1.78
			c-0.62-2.08-0.91-2.23-2.9-1.32c-0.68,0.31-1.44,0.65-1.89,1.2c-1.88,2.28-3.91,4.5-5.4,7.02c-1.73,2.92-3.01,6.11-4.38,9.24
			C106.5,78.06,106.1,79.64,105.59,81.18z M132.48,435.03c-1.45-0.05-1.68,0.05-2.13,1.34c-0.67,1.93-0.34,3.08,1.29,4.35
			c0.73,0.57,1.45,1.18,2.22,1.68c0.32,0.21,0.99,0.41,1.16,0.25c1.84-1.76,2.5-0.36,3.2,1.1c0.11,0.23,0.3,0.44,0.5,0.61
			c2.19,1.89,4.4,3.76,6.59,5.65c3.17,2.74,6.85,4.56,10.75,5.95c2.03,0.72,4.1,1.34,6.18,1.91c0.47,0.13,1.06-0.18,1.59-0.29
			c-0.16-0.58-0.16-1.29-0.5-1.72c-2.06-2.59-4.18-5.14-6.34-7.64c-0.88-1.02-1.41-0.85-1.86,0.46c-0.1,0.29,0.04,0.65,0.01,0.98
			c-0.02,0.18-0.18,0.51-0.27,0.51c-0.68-0.01-1.55-1.41-1.27-1.98c0.22-0.45,0.46-0.89,0.69-1.34c-0.63-0.05-1.27-0.18-1.9-0.14
			c-0.56,0.04-1.13,0.47-1.65,0.38c-0.82-0.14-1.6-0.56-2.39-0.86c0.28-0.59,0.55-1.18,0.84-1.77c0.06-0.11,0.19-0.19,0.26-0.3
			c0.12-0.21,0.23-0.44,0.34-0.66c-0.21,0.04-0.41,0.1-0.62,0.12c-1.48,0.16-2.95,0.35-4.43,0.45c-0.35,0.02-0.72-0.24-1.08-0.37
			c0.15-0.38,0.2-0.87,0.47-1.12c1.28-1.21,2.62-2.35,3.92-3.54c0.19-0.18,0.29-0.47,0.42-0.71c-0.27-0.06-0.55-0.21-0.79-0.16
			c-0.82,0.16-1.62,0.4-2.43,0.61c-1.5,0.39-2.99,0.78-4.49,1.15c-0.18,0.04-0.4-0.07-0.61-0.12c0.17-0.17,0.3-0.4,0.5-0.49
			c1.87-0.77,3.72-1.57,5.62-2.25c0.74-0.27,0.73-0.54,0.23-0.94c-1.1-0.87-2.38-1.56-3.32-2.58c-0.78-0.84-1.34-0.6-2.14-0.26
			C138.58,434.32,136.09,435.24,132.48,435.03z M96.98,268.79c-0.2,0.16-0.47,0.38-0.73,0.61c-1.55,1.34-3.19,2.36-5.34,2.49
			c-1.47,0.09-2.92,0.59-4.39,0.78c-1.32,0.17-1.33,0.97-1.06,1.91c0.78,2.77,1.72,5.47,3.41,7.84c2.51,3.52,5.52,6.44,9.55,8.18
			c0.9,0.39,1.32,0.26,1.22-0.82c-0.26-2.62-0.5-5.24-0.77-7.86c-0.03-0.26-0.14-0.62-0.34-0.75c-1.92-1.26-3.1-3.05-3.73-5.21
			c-0.1-0.35,0.29-0.84,0.45-1.26c0.32,0.29,0.73,0.53,0.95,0.88c0.71,1.15,1.35,2.35,2.04,3.51c0.09,0.16,0.31,0.25,0.47,0.37
			c0.07-0.15,0.2-0.31,0.2-0.46c-0.06-1.92,0.11-3.89-0.29-5.74c-0.3-1.42-0.1-2.18,1.17-2.72c0.13-0.06,0.23-0.17,0.35-0.26
			C99.11,269.8,98.09,269.32,96.98,268.79z M129.62,131.29c2.37-0.73,7.31,0.01,10.55-4c0.45-0.56,0.93-1.1,1.39-1.64
			c-0.64-0.26-1.27-0.52-1.91-0.77c-0.2-0.08-0.46-0.08-0.62-0.21c-1.39-1.1-2.75-2.24-4.14-3.33c-0.23-0.18-0.76-0.33-0.91-0.2
			c-1.81,1.51-3.48,3.19-5.36,4.6c-1.69,1.27-3.83,1.56-5.81,1.04c-1.71-0.44-3.3-1.41-4.86-2.29c-0.84-0.47-1.4-0.93-1.9,0.35
			c-0.33,0.85-0.86,1.64-1.39,2.39c-0.44,0.62-0.39,0.85,0.32,1.27C118.91,130.88,123.07,132.29,129.62,131.29z M156.74,279.92
			c-0.01,0.38-0.04,0.65-0.03,0.91c0.02,0.38,0.08,0.75,0.13,1.12c0.4-0.22,0.88-0.36,1.18-0.68c0.57-0.61,1.1-1.28,1.52-2
			c1.36-2.27,2.66-4.58,4-6.87c0.09-0.16,0.28-0.27,0.43-0.4c0.07,0.19,0.19,0.38,0.2,0.57c0.01,0.26,0.02,0.56-0.1,0.78
			c-1.6,2.93-3.18,5.87-4.87,8.75c-0.27,0.46-1.03,0.92-1.52,0.88c-1.08-0.09-1.15,0.41-1.11,1.21c0.02,0.4-0.1,0.81-0.02,1.19
			c0.16,0.78,0.4,1.54,0.61,2.3c0.69-0.42,1.48-0.73,2.04-1.28c2.88-2.82,4.77-6.34,6.66-9.84c1.54-2.85,2.68-5.85,2.65-9.17
			c-0.01-1.21-0.48-1.45-1.59-1.02c-2.06,0.8-4.15,1.49-6.2,2.31c-0.75,0.3-1.46,0.76-2.09,1.27c-1.74,1.4-1,3.53-1.45,5.32
			c-0.1,0.41-0.01,0.86,0,1.3c0.3-0.35,0.66-0.67,0.9-1.06c0.86-1.42,1.65-2.87,2.52-4.28c0.12-0.2,0.49-0.26,0.75-0.38
			c-0.01,0.28,0.07,0.6-0.04,0.84c-0.89,1.93-1.81,3.84-2.73,5.76c-0.09,0.18-0.3,0.46-0.43,0.45
			C156.26,277.69,156.95,279.16,156.74,279.92z M153.26,252.79c0.6-1.58-0.04-1.46-0.88-1.14c-1.54,0.59-3.12,1.12-4.63,1.78
			c-0.49,0.21-1.09,0.69-1.19,1.15c-0.5,2.23-0.82,4.51-1.28,6.75c-0.16,0.78,0.06,0.88,0.7,0.66c1.25-0.43,2.55-0.76,3.75-1.31
			c1.29-0.59,2.66-1.21,2.88-2.91C152.85,256,153.08,254.23,153.26,252.79z M138.75,260.76c-0.05-1.23-0.07-2.47-0.19-3.69
			c-0.03-0.25-0.47-0.67-0.71-0.66c-1.76,0.09-3.52,0.26-5.27,0.45c-0.23,0.03-0.58,0.36-0.62,0.59c-0.33,2-0.56,4.01-0.9,6
			c-0.15,0.87,0.12,1.11,0.94,1.01c1.18-0.14,2.38-0.19,3.56-0.34C138.5,263.76,138.5,263.75,138.75,260.76z M123.99,260.3
			c-0.11,1.1-0.3,2.19-0.29,3.29c0,0.37,0.49,1.01,0.81,1.05c1.31,0.15,2.65,0.21,3.96,0.09c0.47-0.05,1.15-0.65,1.26-1.12
			c0.28-1.14,0.23-2.36,0.42-3.53c0.48-3,0.4-3.13-2.58-3.22C124.02,256.74,124.02,256.74,123.99,260.3z M115.29,263.84
			c0.35,0.04,0.71,0.05,1.05,0.12c0.83,0.16,0.82-0.21,0.7-0.89c-0.26-1.51-0.5-3.03-0.57-4.56c-0.09-2.16-0.09-2.23-2.26-2.42
			c-0.3-0.03-0.6-0.14-0.9-0.2c-3.13-0.6-3.37-0.35-2.72,2.74c0.11,0.52,0.22,1.03,0.36,1.54
			C111.89,263.44,111.97,263.51,115.29,263.84z M140.25,258.42c-0.12,1.36-0.22,2.72-0.38,4.08c-0.1,0.88,0.24,1.05,1.06,0.93
			c1.66-0.24,2.96-0.8,3.27-2.68c0.21-1.26,0.58-2.49,0.73-3.75c0.25-2.22,0.03-2.37-2.11-1.78
			C140.31,255.91,140.31,255.91,140.25,258.42z M120.11,256.58c-2.21-0.01-2.21-0.01-2.24,2.2c-0.01,0.56-0.02,1.13,0.01,1.69
			c0.19,3.38,0.57,3.79,3.28,4.01c0.97,0.08,1.27-0.29,1.27-1.17c-0.01-1.32-0.08-2.65,0.06-3.96
			C122.75,256.98,122.47,256.59,120.11,256.58z M110.31,263.27c0.04-0.2,0.2-0.52,0.12-0.76c-0.43-1.33-1.26-2.63-1.32-3.98
			c-0.13-2.66-1.18-4.02-3.92-3.87c-0.4,0.02-0.81-0.01-1.22-0.01c0.06,0.43,0.04,0.9,0.21,1.27c0.79,1.73,1.75,3.39,2.44,5.16
			C107.24,262.67,108.41,263.16,110.31,263.27z M99.79,254.27c-0.62-0.17-0.91-0.07-0.77,0.84c0.13,0.85-0.04,1.76-0.18,2.63
			c-0.22,1.46,0.1,2.6,1.62,3.1c1.41,0.46,2.83,0.89,4.25,1.32c0.15,0.05,0.33,0,0.5,0c-0.08-0.19-0.12-0.42-0.24-0.58
			c-1.07-1.43-1.8-2.96-2.1-4.77C102.49,254.47,102.37,254.49,99.79,254.27z M158.18,250.47c-0.15-0.32-0.33-0.72-0.52-1.12
			c-0.84,0.58-2.18,1-2.44,1.77c-0.71,2.15-0.98,4.44-1.38,6.68c-0.03,0.16,0.28,0.53,0.46,0.54c1.89,0.13,3.24-1.41,3.06-3.25
			c-0.09-0.9,0.1-1.83,0.25-2.73C157.71,251.77,157.96,251.19,158.18,250.47z M119.42,137.68c2.29,0.06,2.44-0.14,2.54-3.22
			c0.04-1.22-1.83-3.03-2.89-2.39c-1.02,0.62-1.61,2.32-1.9,3.66C116.82,137.31,117.35,137.63,119.42,137.68z M124.78,138.13
			c0.76-0.25,2.01-0.32,2.18-0.78c0.39-1.09,0.29-2.36,0.31-3.56c0-0.18-0.38-0.52-0.61-0.53c-1.01-0.07-2.06-0.19-3.01,0.04
			c-0.26,0.06-0.24,1.27-0.36,1.95c-0.04,0.26-0.11,0.52-0.16,0.78C122.77,137.96,122.77,137.96,124.78,138.13z M133.75,132.36
			c0.25,1.14,0.4,2.05,0.66,2.93c0.06,0.21,0.56,0.48,0.77,0.42c1.25-0.39,2.49-0.83,3.7-1.33c0.99-0.41,0.58-1.22,0.23-1.75
			c-0.37-0.57-1-1.32-1.54-1.35c-1.01-0.05-2.04,0.36-3.06,0.62C134.22,131.98,133.97,132.22,133.75,132.36z M128.4,136.9
			c0.1,0.11,0.52,0.77,0.71,0.71c1.37-0.43,2.89-0.76,3.94-1.64c0.58-0.49-0.85-3.41-1.46-3.35c-0.91,0.09-2.27,0.05-2.59,0.58
			C128.47,134.09,128.6,135.38,128.4,136.9z M115.14,136.46c0.08-0.12,0.32-0.37,0.43-0.67c0.42-1.11,0.82-2.23,1.16-3.36
			c0.14-0.45,0.3-1.2,0.08-1.39c-0.56-0.49-1.36-1.02-2.01-0.04c-0.64,0.96-1.36,1.91-1.78,2.96
			C112.45,135.42,113.25,136.43,115.14,136.46z M114.24,129.6c-0.3-0.19-0.47-0.29-0.64-0.4c-1.57-1.05-2.63,0.04-3.49,1.04
			c-2.17,2.53-2.31,1.91,0.32,4.06c0.03,0.03,0.08,0.09,0.1,0.08c0.29-0.1,0.73-0.13,0.84-0.33c0.59-1.12,1.05-2.32,1.66-3.43
			C113.26,130.23,113.76,130,114.24,129.6z M164.86,260.68c-1.99-0.04-2.87,1.25-2.78,3.44c0.06,1.44,1.16,1.81,2.14,1.85
			c0.58,0.02,1.67-0.78,1.71-1.27c0.07-1.03-0.38-2.11-0.65-3.16C165.19,261.2,164.96,260.89,164.86,260.68z M141.37,133.29
			c0.11,0.11,0.21,0.23,0.32,0.34c0.49-0.62,1-1.22,1.48-1.86c0.49-0.66,0.95-1.36,1.42-2.04c-0.59-0.33-1.16-0.72-1.79-0.96
			c-0.54-0.21-1.34-0.51-1.68-0.28c-0.65,0.45-1.55,1.35-1.45,1.89c0.19,1.04,1.02,1.96,1.58,2.92
			C141.26,133.32,141.33,133.3,141.37,133.29z M91.33,270.23c1.28-0.95,2.84-1.66,2.78-2.17c-0.13-1.1-1.1-2.09-1.73-3.13
			c-0.82,0.6-2.18,1.1-2.32,1.83C89.9,267.68,90.74,268.77,91.33,270.23z M105.01,94.34c-0.3,0.67-0.67,1.11-0.66,1.55
			c0.04,3.27,0.95,6.27,2.95,8.89c0.1,0.13,0.27,0.21,0.41,0.31c0.01-0.16,0.06-0.32,0.02-0.46c-0.73-3.16-1.46-6.32-2.21-9.48
			C105.48,94.95,105.31,94.8,105.01,94.34z M144.97,96.1c-0.08-0.04-0.17-0.08-0.25-0.13c-0.1-0.74-0.18-1.48-0.32-2.2
			c-0.03-0.16-0.26-0.28-0.4-0.42c-0.09,0.14-0.22,0.27-0.25,0.42c-0.66,3.29-1.31,6.58-1.95,9.87c-0.04,0.22,0.07,0.47,0.12,0.7
			c0.17-0.18,0.43-0.33,0.5-0.54C143.29,101.24,144.13,98.67,144.97,96.1z M110.05,440.06c0.25-0.05,0.67-0.13,1.08-0.21
			c-0.32-0.31-0.59-0.69-0.96-0.93c-1.02-0.67-2.06-1.3-3.13-1.89c-0.31-0.17-0.95-0.34-1.07-0.2c-0.49,0.6-0.83,1.31-1.21,1.99
			c-0.01,0.01,0.17,0.16,0.27,0.18C106.64,439.34,108.26,439.68,110.05,440.06z M84.47,267.2c-0.53,0.12-1.1,0.25-1.68,0.38
			c0.2,0.55,0.38,1.11,0.61,1.65c0.19,0.45,0.31,1.04,0.66,1.26c0.49,0.31,1.16,0.45,1.75,0.45c0.35,0,1.04-0.48,1.01-0.6
			c-0.23-0.92-0.51-1.86-0.97-2.69C85.7,267.36,85.02,267.36,84.47,267.2z M146.74,126.39c-0.41-0.57-0.61-1.13-1.01-1.37
			c-0.93-0.57-1.94-1-2.93-1.45c-0.22-0.1-0.5-0.07-0.75-0.1c0.1,0.27,0.17,0.55,0.29,0.81c0.33,0.72,0.57,1.51,1.04,2.13
			c0.54,0.7,1.28,1.25,1.93,1.87C145.76,127.67,146.22,127.07,146.74,126.39z M159.22,263c-0.02,0-0.03,0-0.05,0
			c0.06,0.92,0.03,1.86,0.19,2.76c0.22,1.2,1.28,1.82,2.38,1.49c0.15-0.05,0.33-0.52,0.31-0.53c-1.54-1.05-1.3-2.65-1.38-4.19
			c-0.02-0.36-0.54-0.69-0.83-1.03c-0.2,0.23-0.46,0.44-0.58,0.71C159.17,262.44,159.23,262.74,159.22,263z M169.52,261.25
			c-0.12-0.06-0.24-0.13-0.35-0.19c0.56-1.66-0.1-1.45-1.32-1.09c-1.24,0.37-1.56,0.9-1.14,2.05c0.12,0.33,0.12,0.7,0.23,1.03
			c0.25,0.81,0.68,1.17,1.3,0.32C168.72,262.7,169.1,261.96,169.52,261.25z M97.19,262.69c-0.04-0.36-0.08-0.7-0.12-1.04
			c-0.11,0.04-0.25,0.05-0.33,0.12c-0.77,0.78-1.63,1.5-2.23,2.39c-0.24,0.36-0.01,1.15,0.21,1.66c0.13,0.32,0.6,0.6,0.96,0.67
			c0.2,0.04,0.62-0.36,0.71-0.63C96.71,264.83,96.94,263.75,97.19,262.69z M147.42,442.46c0.78-0.18,1.59-0.34,2.38-0.57
			c0.44-0.13,0.85-0.37,1.27-0.56c-0.3-0.43-0.53-0.92-0.91-1.25c-0.21-0.18-0.75-0.22-0.97-0.08c-0.73,0.48-1.39,1.08-2.06,1.65
			c-0.19,0.16-0.31,0.39-0.47,0.59C146.89,442.3,147.13,442.37,147.42,442.46z M107.86,443.38c-0.25-0.36-0.3-0.5-0.4-0.56
			c-1.27-0.82-2.54-1.67-3.87-2.39c-0.13-0.07-0.72,0.61-1.01,1.01c-0.07,0.1,0.14,0.59,0.31,0.65c1.35,0.46,2.72,0.86,4.09,1.26
			C107.2,443.41,107.44,443.37,107.86,443.38z M107.58,130.98c0.23-0.13,0.32-0.16,0.38-0.22c1.01-1.16,2.02-2.3,2.99-3.49
			c0.11-0.14,0.1-0.57-0.03-0.68c-0.14-0.13-0.59-0.16-0.69-0.05c-0.98,1.1-1.94,2.22-2.83,3.39
			C107.26,130.12,107.5,130.59,107.58,130.98z M90.14,270.1c-0.12-0.16-0.25-0.33-0.37-0.49c-0.48-0.93-0.94-1.86-1.45-2.77
			c-0.06-0.11-0.42-0.16-0.57-0.09c-0.2,0.1-0.48,0.39-0.45,0.52c0.26,0.96,0.55,1.92,0.94,2.84c0.07,0.17,0.64,0.17,0.98,0.17
			C89.54,270.28,89.84,270.17,90.14,270.1z M154.26,444.81c-0.39-0.48-0.64-0.91-1.01-1.19c-0.18-0.14-0.65-0.13-0.85,0.01
			c-0.61,0.41-1.17,0.9-1.72,1.39c-0.15,0.13-0.2,0.37-0.3,0.56c0.2-0.02,0.41-0.02,0.6-0.05c0.89-0.16,1.78-0.33,2.67-0.51
			C153.82,444.98,153.99,444.9,154.26,444.81z M157.52,265.86c-0.02,0-0.05,0-0.07,0c0.01,0.57-0.01,1.15,0.04,1.71
			c0.02,0.25,0.2,0.49,0.31,0.73c0.25-0.31,0.74-0.64,0.72-0.94c-0.09-1.2-0.33-2.39-0.52-3.59c-0.02-0.15-0.09-0.29-0.14-0.43
			c-0.09,0.13-0.24,0.26-0.25,0.4C157.55,264.45,157.54,265.16,157.52,265.86z"/>
		<path d="M101.28,200.47c-1.43-1.37-1.38-2.47,0.11-3.67c0.84-0.67,1.53-1.38,0.56-2.52c-0.38-0.46-0.59-1.09-0.8-1.67
			c-0.55-1.49,0-2.57,1.5-3.09c2.37-0.82,4.74-1.65,7.1-2.5c0.31-0.11,0.56-0.35,0.85-0.53c-0.38-0.16-0.8-0.51-1.13-0.44
			c-1.49,0.34-2.94,1.04-4.44,1.16c-1.66,0.14-3.36-0.18-5.03-0.34c-0.18-0.02-0.33-0.29-0.49-0.44c0.2-0.05,0.41-0.17,0.59-0.13
			c2.9,0.65,5.56-0.41,8.27-1.15c0.99-0.27,1.87-0.7,2.98,0.09c1.3,0.93,0.73,1.6-0.05,2.21c-0.64,0.5-1.48,0.76-2.25,1.06
			c-1.93,0.73-3.87,1.45-5.82,2.13c-1.08,0.38-0.95,1.21-0.5,1.8c1.42,1.85,1.38,3.25-0.57,4.82
			C101.45,197.82,101.54,199.37,101.28,200.47L101.28,200.47z"/>
		<path d="M101.72,232.18c-1.28,0.22-2.54,0.36-3.54-0.76c-0.11-0.13-0.17-0.3-0.25-0.45c0.15-0.01,0.3-0.03,0.45-0.04
			c1.37-0.06,2.74-0.18,4.11-0.16c0.7,0.01,1.72,0.04,2.02,0.46c0.65,0.92-0.31,1.34-1.01,1.74c-2.29,1.3-2.96,3.16-2.07,5.62
			c0.47,1.29,0.77,2.59-0.34,3.72c-0.2,0.21-0.61,0.21-0.92,0.31c0.08-0.26,0.21-0.52,0.24-0.78c0.08-0.61,0.4-1.39,0.14-1.8
			c-1.88-2.99-1.01-5.51,1.15-7.87c0.03-0.02,0.07-0.03,0.1-0.05c0.03-0.02,0.05-0.05,0.08-0.07
			C101.82,232.09,101.77,232.14,101.72,232.18z"/>
		<path d="M155.6,185.41c-0.06,1.32-2.04,3.01-3.7,3.33c-1.16,0.22-2.32,0.46-3.44,0.82c-0.45,0.15-0.8,0.62-1.2,0.95
			c0.46,0.3,0.89,0.73,1.4,0.88c0.84,0.24,1.73,0.31,2.6,0.43c1.35,0.18,2.03,0.96,2.05,2.3c0,0.22-0.2,0.44-0.31,0.66
			c-0.14-0.14-0.39-0.27-0.41-0.43c-0.17-1.13-0.97-1.26-1.9-1.42c-1.29-0.22-2.6-0.51-3.82-1c-1.65-0.65-1.72-1.77-0.34-2.87
			c1.15-0.91,2.41-1.35,3.91-1.29c2.03,0.07,3.92-0.32,4.81-2.52c0.05-0.11,0.14-0.2,0.21-0.31
			C155.51,185.14,155.57,185.33,155.6,185.41z"/>
		<path d="M94.65,167.53c-0.48-0.43-1.22-1.08-1.92-1.75c-0.08-0.07,0-0.33,0.04-0.49c0-0.02,0.26-0.04,0.31,0.02
			c1.61,1.81,3.57,0.89,5.44,0.72c0.31-0.03,0.62-0.11,0.92-0.06c0.28,0.04,0.54,0.21,0.81,0.33c-0.24,0.29-0.45,0.8-0.72,0.84
			C98.1,167.32,96.65,167.38,94.65,167.53z"/>
		<polygon points="101.27,200.46 101.31,200.5 101.28,200.47 		"/>
		<path d="M110.13,398.79c-0.17,2.58-0.17,2.57,2.05,2.93c0.26,0.04,0.5,0.15,0.75,0.24c0.54,0.22,1.54,0.52,1.52,0.67
			c-0.12,0.77-0.34,1.63-0.81,2.23c-0.47,0.59-1.23,1.05-1.95,1.32c-1.55,0.57-1.84,1.71-1.51,3.07c0.3,1.22,0.69,2.47,1.29,3.56
			c0.75,1.36,0.57,2.58,0.12,3.94c-0.46,1.4-0.76,2.86-1.13,4.29c-0.07,0.27-0.17,0.53-0.26,0.8c-0.13-0.24-0.39-0.49-0.38-0.71
			c0.12-1.46,0.1-2.98,0.51-4.37c0.4-1.34,0.53-2.44-0.36-3.6c-1.32-1.72-1.48-3.77-1.22-5.81c0.08-0.6,0.73-1.22,1.27-1.64
			c0.82-0.64,1.79-1.11,2.66-1.69c0.17-0.11,0.19-0.45,0.28-0.68c-0.2-0.06-0.4-0.12-0.61-0.17c-0.08-0.02-0.18-0.01-0.26-0.01
			c-2.91-0.03-3.58,0.24-3.68-4.03c-0.14-6.22-0.13-12.46-1.18-18.62c-0.04-0.21-0.04-0.43-0.05-0.65c0.17,0.17,0.42,0.31,0.5,0.52
			c0.39,0.98,0.94,1.96,1.06,2.99c0.43,3.69,0.71,7.39,1.04,11.09C109.94,396,110.04,397.58,110.13,398.79z"/>
		<path d="M149.27,313.28c-0.51,2.01-1.04,4.11-1.59,6.2c-0.04,0.15-0.18,0.27-0.27,0.41c-0.05-0.15-0.17-0.31-0.15-0.45
			c0.2-1.12,0.39-2.26,0.67-3.36c0.49-1.93,0.58-3.72-0.96-5.31c-0.73-0.76-0.83-1.68-0.48-2.81c0.52-1.71,0.71-3.52,0.99-5.29
			c0.03-0.22-0.19-0.58-0.4-0.72c-0.51-0.34-1.1-0.56-1.62-0.88c-0.71-0.43-1.38-0.92-2.07-1.39c0.57-0.5,1.11-1.04,1.72-1.49
			c1.78-1.33,3.65-2.68,4.28-4.9c0.77-2.71,1.2-5.52,1.8-8.28c0.1-0.45,0.28-0.88,0.42-1.31c0.03,0.46,0.12,0.92,0.09,1.37
			c-0.18,2.45-0.09,4.98-0.67,7.34c-0.45,1.83-1.66,3.51-2.68,5.15c-0.39,0.63-1.2,1.02-1.86,1.47c-0.53,0.36-0.64,0.56,0.05,0.83
			c2.55,1.01,2.95,2.92,2.16,5.31c-0.15,0.46-0.09,0.99-0.26,1.43c-0.64,1.6-0.7,3.05,0.47,4.5
			C149.29,311.58,149.16,312.45,149.27,313.28z"/>
		<path d="M144.56,416.22c-0.21,0.64-0.41,1.28-0.62,1.91c-0.06-0.62-0.13-1.23-0.18-1.85c-0.21-2.55-0.45-5.1-0.62-7.65
			c-0.07-1.05-0.03-2.11,0-3.17c0-0.18,0.17-0.35,0.26-0.53c0.1,0.17,0.27,0.34,0.29,0.52c0.22,1.66,0.5,3.33,0.59,5
			c0.11,1.9,0.05,3.81,0.07,5.71C144.42,416.19,144.49,416.2,144.56,416.22z"/>
		<path d="M137.06,350.61c-1.65-0.28-2.51-1.25-3.22-2.44c-0.07-0.12-0.03-0.32-0.01-0.48c0-0.02,0.26-0.06,0.33-0.01
			c2.42,2.05,4.98,0.91,7.53,0.36c0.31-0.07,0.66,0.01,0.98,0.02c-0.28,0.17-0.54,0.36-0.83,0.49
			C140.26,349.25,138.66,349.93,137.06,350.61z"/>
		<path d="M114.44,346.45c-2.61,2.86-5.36,1.66-6.88-0.47c-0.19-0.27-0.15-0.71-0.21-1.07c0.3,0.12,0.67,0.17,0.89,0.37
			c1.82,1.71,3.89,1.89,6.15,1.11L114.44,346.45z"/>
		<path d="M114.39,346.39c0.02-0.02,0.05-0.05,0.07-0.07c0.02,0.02,0.06,0.05,0.05,0.06c-0.02,0.03-0.04,0.05-0.07,0.07
			C114.44,346.45,114.39,346.39,114.39,346.39z"/>
		<path d="M125.48,112.53c2.96,0,3.88,0.87,5.8,1.36c0.26,0.07,0.45,0.42,0.68,0.64c-0.31,0.1-0.63,0.3-0.94,0.28
			c-2.09-0.13-4.21-0.59-6.26-0.37c-2.14,0.23-4.22,1.12-6.33,1.67c-0.71,0.19-1.46,0.23-2.2,0.34c0.58-0.51,1.08-1.17,1.75-1.5
			C120.31,113.78,122.53,112.53,125.48,112.53z"/>
		<path d="M124.78,104.1c-0.12,1.04-0.25,2.09-0.34,3.13c-0.07,0.75,0.1,1.23,1.04,0.89c0.35-0.13,0.92-0.18,1.14,0.01
			c0.26,0.24,0.47,1,0.32,1.15c-1.08,1.07-3.29,0.72-3.99-0.57c-0.12-0.22-0.24-0.5-0.19-0.73c0.4-2.16,0.83-4.32,1.29-6.48
			c0.05-0.26,0.31-0.47,0.47-0.7c0.1,0.31,0.28,0.61,0.28,0.92c0.02,0.79-0.04,1.58-0.07,2.37
			C124.74,104.09,124.76,104.1,124.78,104.1z"/>
		<path d="M128.7,92.37c2.7,0.74,5.87,3.18,6.77,5.25c-1.51-0.91-4.28-2.37-6.01-3.41c-0.41-0.25-0.85-0.49-1.18-0.82
			C127.75,92.87,128.05,92.26,128.7,92.37z"/>
		<path d="M121.54,92.04c-2.76,0.49-6.14,2.64-7.21,4.62c1.59-0.77,4.47-1.98,6.29-2.85c0.43-0.21,0.89-0.41,1.25-0.71
			C122.45,92.63,122.2,91.99,121.54,92.04z"/>
		<path d="M120.5,73.54c-1.81,1.52-3.59,3.07-5.45,4.53c-0.54,0.42-1.28,0.62-1.97,0.74c-0.1,0.02-0.48-0.89-0.56-1.39
			c-0.6-3.83,0.85-7.2,2.49-10.5c0.46-0.93,1.1-1.78,1.74-2.6c0.16-0.21,0.64-0.16,0.97-0.23c-0.13,0.26-0.26,0.52-0.38,0.78
			c-0.8,1.7-1.67,3.37-2.39,5.1c-0.82,1.97-1.35,4.03-1.12,6.21c0.03,0.32,0.15,0.64,0.23,0.96c0.3-0.15,0.65-0.25,0.9-0.47
			c2.1-1.84,4.15-3.71,6.27-5.52c0.41-0.35,1.03-0.46,1.56-0.68c-0.04,0.53-0.02,1.07-0.13,1.59c-0.19,0.92-0.46,1.82-0.7,2.73
			c0.9-0.29,1.82-0.54,2.69-0.9c0.85-0.35,1.64-0.83,2.45-1.26c0.67-0.35,1.03-0.16,0.97,0.61c-0.05,0.75-0.13,1.5-0.25,2.24
			c-0.04,0.23-0.24,0.43-0.37,0.64c-0.13-0.22-0.4-0.44-0.38-0.64c0.19-1.82-0.7-1.16-1.59-0.77c-1.12,0.5-2.26,0.99-3.44,1.31
			c-1.66,0.45-2.12-0.07-1.69-1.71c0.07-0.26,0.08-0.52,0.12-0.79c0.03-0.07,0.06-0.13,0.09-0.2
			C120.54,73.39,120.52,73.47,120.5,73.54z"/>
		<path d="M88.41,277.81c0.31,0.42,0.51,0.65,0.68,0.91c2.28,3.57,5.5,6.18,8.75,8.78c0.28,0.23,0.48,0.56,0.72,0.84
			c-0.36-0.02-0.77,0.08-1.06-0.07c-0.86-0.44-1.8-0.84-2.48-1.5c-2.15-2.08-4.69-3.81-6.04-6.62c-0.27-0.56-0.47-1.14-0.67-1.73
			C88.25,278.3,88.35,278.12,88.41,277.81z"/>
		<path d="M90.9,275.47c0.38,0.54,0.53,0.75,0.67,0.97c1.51,2.42,2.96,4.89,4.57,7.25c0.45,0.66,1.37,0.98,2.06,1.48
			c0.22,0.16,0.36,0.42,0.54,0.63c-0.3,0.12-0.65,0.41-0.9,0.34c-0.44-0.12-0.93-0.38-1.22-0.73c-1.07-1.32-2.13-2.67-3.09-4.07
			c-0.96-1.41-1.82-2.9-2.65-4.39C90.71,276.67,90.87,276.21,90.9,275.47z"/>
		<ellipse transform="matrix(0.0359 -0.9994 0.9994 0.0359 17.6477 213.9457)" cx="119.71" cy="97.83" rx="2.21" ry="1.47"/>
		<circle class="st11" cx="119.65" cy="98.7" r="0.51"/>
		<ellipse transform="matrix(0.0359 -0.9994 0.9994 0.0359 26.8526 224.1992)" cx="129.62" cy="98.18" rx="2.21" ry="1.47"/>
		<circle class="st11" cx="129.57" cy="99.05" r="0.51"/>
	</g>
</g>
<g id="typo">
	<path class="st15" d="M326.55,119.13h28.21c19.04,0,27.05,5.69,27.05,22.41c0,10.91-1.51,17.99-12.89,21.48v0.23
		c7.55,1.51,12.42,6.97,12.42,14.74v16.37c0,6.15-0.23,14.51,2.21,17.53h-21.13c-2.44-3.02-2.44-11.38-2.44-17.53v-14.86
		c0-5.34-2.09-7.66-8.13-7.66h-3.95v40.05h-21.36V119.13z M347.91,156.04h5.22c7.31,0,7.31-4.88,7.31-10.91
		c0-6.5,0-10.22-8.36-10.22h-4.18V156.04z"/>
	<path class="st15" d="M391.09,144.44c0-18.11,11.61-26.82,27.51-26.82c15.9,0,27.51,8.71,27.51,26.82v42.14
		c0,16.49-10.56,26.82-27.51,26.82c-16.95,0-27.51-10.33-27.51-26.82V144.44z M412.45,188.43c0,2.44,0,8.47,6.15,8.47
		c6.15,0,6.15-6.04,6.15-8.47v-45.85c0-3.13,0-8.47-6.15-8.47c-6.15,0-6.15,5.34-6.15,8.47V188.43z"/>
	<path class="st15" d="M451.68,119.13h21.83l5.8,65.94h0.23l7.08-65.94h21.48l-15.79,92.75h-26.47L451.68,119.13z"/>
	<path class="st15" d="M521.7,119.13h28.33l17.41,92.75h-22.41l-1.97-16.48h-14.97l-2.21,16.48h-21.36L521.7,119.13z M530.29,178.91
		h10.68l-4.99-45.39h-0.23L530.29,178.91z"/>
	<path d="M426.57,239.12c-0.22-3.63-2.22-6.1-6.01-6.1c-5.44,0-7.32,4.29-7.32,9.1c0,4.75,1.53,9.57,7.13,9.57
		c3.5,0,5.66-2.25,5.85-5.66h2.88c-0.19,5.13-3.78,7.91-8.76,7.91c-3.07,0-5.79-0.94-7.76-3.41c-1.69-2.13-2.38-5.51-2.38-8.16
		c0-3.19,0.84-6.04,2.31-7.95c1.78-2.31,4.29-3.6,7.73-3.6c2.75,0,5.32,0.94,6.51,3.6v-3.25h2.25v7.95H426.57z"/>
	<path d="M431.56,242.69c0-3.16,0.56-6.01,2.63-8.51c1.94-2.38,4.85-3.35,7.88-3.35c3.1,0,5.88,1.03,7.85,3.47
		c1.94,2.38,2.41,5.22,2.41,8.23c0,1.66-0.12,2.82-0.62,4.41c-0.44,1.31-1.03,2.69-1.88,3.75c-1.88,2.28-4.75,3.25-7.66,3.25
		C435.34,253.95,431.56,249.13,431.56,242.69z M434.56,242.35c0,2.16,0.28,4.82,1.63,6.6c1.44,1.97,3.47,2.97,5.94,2.97
		s4.38-1.09,5.72-3.16c1.16-1.85,1.53-4.25,1.53-6.35c0-4.69-1.88-9.54-7.41-9.54C436.5,232.87,434.56,237.65,434.56,242.35z"/>
	<path d="M461.95,231.18h3.19l7.79,20.33h2.25v2.06h-8.32v-2.06h3.1l-1.94-5.38h-9.26l-1.91,5.38h3.07v2.06h-8.2v-2.06h2.31
		L461.95,231.18z M467.14,244.07l-3.72-10.45l-3.79,10.45H467.14z"/>
	<path d="M490.73,239.12c-0.22-3.63-2.22-6.1-6.01-6.1c-5.44,0-7.32,4.29-7.32,9.1c0,4.75,1.53,9.57,7.13,9.57
		c3.5,0,5.66-2.25,5.85-5.66h2.88c-0.19,5.13-3.79,7.91-8.76,7.91c-3.07,0-5.79-0.94-7.76-3.41c-1.69-2.13-2.38-5.51-2.38-8.16
		c0-3.19,0.84-6.04,2.31-7.95c1.78-2.31,4.29-3.6,7.73-3.6c2.75,0,5.32,0.94,6.51,3.6v-3.25h2.25v7.95H490.73z"/>
	<path d="M495.56,253.58v-2.06h3.13v-18.27h-3.13v-2.06h8.98v2.06h-3.13v7.91h10.7v-7.91h-3.16v-2.06h9.01v2.06h-3.13v18.27h3.13
		v2.06h-9.01v-2.06h3.16v-8.13h-10.7v8.13h3.13v2.06H495.56z"/>
	<path d="M519.78,231.18h9.01v2.06h-3.16v18.27h3.16v2.06h-9.01v-2.06h3.13v-18.27h-3.13V231.18z"/>
	<path d="M530.5,253.58v-2.06h3.16v-18.27h-3.16v-2.06h7.19l9.88,19.49v-17.42h-3.13v-2.06h8.63v2.06h-3.07v20.33h-3.78l-10.2-20.05
		v17.99h3.22v2.06H530.5z"/>
	<path d="M569.69,239.12c-0.03-3.75-2.53-6.13-6.22-6.13c-5.32,0-6.94,5.1-6.94,9.57c0,4.41,1.75,9.2,6.94,9.2
		c4,0,6.51-3.41,6.41-7.23h-3.44v-2.03h8.79v2.03h-2.82v9.04h-2.57v-3.44c-0.97,2.72-4.13,3.82-6.79,3.82
		c-2.91,0-5.63-1.22-7.6-3.82c-1.28-1.69-1.94-5.16-1.94-7.57c0-2.82,0.5-6.13,2.5-8.51c1.81-2.16,4.38-3.22,7.48-3.22
		c2.47,0,4.97,0.97,6.19,3.22v-2.88h2.47v7.95H569.69z"/>
</g>
</svg>
